<?xml version="1.0" encoding="utf-8"?>
<!-- Generator: Adobe Illustrator 25.0.1, SVG Export Plug-In . SVG Version: 6.00 Build 0)  -->
<svg version="1.1" id="Layer_1" xmlns="http://www.w3.org/2000/svg" xmlns:xlink="http://www.w3.org/1999/xlink" x="0px" y="0px"
	 viewBox="0 0 25 25" style="enable-background:new 0 0 25 25;" xml:space="preserve">
<g>
	<g>
		<path d="M14.8,0h-12C1.3,0,0,1.3,0,2.9V19c0,1.6,1.3,2.9,2.9,2.9h6.9c-0.6-1.2-0.9-2.5-0.9-3.9c0-1.2,0.2-2.3,0.7-3.4
			c0,0-0.1,0-0.1,0H4.2c-0.6,0-1-0.5-1-1s0.5-1,1-1h5.2c0.4,0,0.8,0.2,0.9,0.6c0.7-1.1,1.6-1.9,2.6-2.6H4.2c-0.6,0-1-0.5-1-1
			s0.5-1,1-1h9.4c0.6,0,1,0.5,1,1c0,0.1,0,0.1,0,0.1c1-0.4,2-0.6,3.1-0.6v-6C17.7,1.3,16.4,0,14.8,0z M8.3,6.2H4.2c-0.6,0-1-0.5-1-1
			s0.5-1,1-1h4.2c0.6,0,1,0.5,1,1S8.9,6.2,8.3,6.2z"/>
	</g>
	<g>
		<path d="M18,10.9c-3.9,0-7,3.2-7,7s3.2,7,7,7s7-3.2,7-7S21.8,10.9,18,10.9z M20.8,19H19v1.8c0,0.6-0.5,1-1,1s-1-0.5-1-1V19h-1.8
			c-0.6,0-1-0.5-1-1s0.5-1,1-1h1.8v-1.8c0-0.6,0.5-1,1-1s1,0.5,1,1v1.8h1.8c0.6,0,1,0.5,1,1S21.4,19,20.8,19z"/>
	</g>
</g>
</svg>
