<?xml version="1.0" encoding="utf-8"?>
<!-- Generator: Adobe Illustrator 16.0.0, SVG Export Plug-In . SVG Version: 6.00 Build 0)  -->
<!DOCTYPE svg PUBLIC "-//W3C//DTD SVG 1.1//EN" "http://www.w3.org/Graphics/SVG/1.1/DTD/svg11.dtd">
<svg version="1.1" id="Layer_1" xmlns="http://www.w3.org/2000/svg" xmlns:xlink="http://www.w3.org/1999/xlink" x="0px" y="0px"
	 width="56px" height="62.5px" viewBox="0 0 56 62.5" enable-background="new 0 0 56 62.5" xml:space="preserve">
<g>
	<g>
		<path fill="#FF3654" d="M49.75,62.5h-40c-3.446,0-6.25-2.804-6.25-6.25v-50C3.5,2.804,6.304,0,9.75,0h40
			C53.196,0,56,2.804,56,6.25v50C56,59.696,53.196,62.5,49.75,62.5z M9.75,2.5C7.682,2.5,6,4.182,6,6.25v50
			C6,58.317,7.682,60,9.75,60h40c2.067,0,3.75-1.683,3.75-3.75v-50c0-2.068-1.683-3.75-3.75-3.75H9.75z"/>
	</g>
	<g>
		<g>
			<path fill="#FF3654" d="M42.371,20.5H18.125c-1.792,0-3.25-1.458-3.25-3.25v-6c0-1.792,1.458-3.25,3.25-3.25h24.246
				c1.792,0,3.25,1.458,3.25,3.25v6C45.621,19.042,44.163,20.5,42.371,20.5z M18.125,10.5c-0.413,0-0.75,0.336-0.75,0.75v6
				c0,0.414,0.337,0.75,0.75,0.75h24.246c0.412,0,0.75-0.336,0.75-0.75v-6c0-0.414-0.338-0.75-0.75-0.75H18.125z"/>
		</g>
		<g>
			<path fill="#FF3654" d="M32.377,27.239H16.125c-0.691,0-1.25-0.56-1.25-1.25s0.559-1.25,1.25-1.25h16.252
				c0.689,0,1.25,0.56,1.25,1.25S33.066,27.239,32.377,27.239z"/>
		</g>
		<g>
			<path fill="#FF3654" d="M44.371,35.572H16.125c-0.691,0-1.25-0.56-1.25-1.25s0.559-1.25,1.25-1.25h28.246
				c0.69,0,1.25,0.56,1.25,1.25S45.062,35.572,44.371,35.572z"/>
		</g>
		<g>
			<path fill="#FF3654" d="M44.371,43.906H16.125c-0.691,0-1.25-0.56-1.25-1.25s0.559-1.25,1.25-1.25h28.246
				c0.69,0,1.25,0.56,1.25,1.25S45.062,43.906,44.371,43.906z"/>
		</g>
		<g>
			<path fill="#FF3654" d="M44.371,52.239H16.125c-0.691,0-1.25-0.56-1.25-1.25s0.559-1.25,1.25-1.25h28.246
				c0.69,0,1.25,0.56,1.25,1.25S45.062,52.239,44.371,52.239z"/>
		</g>
	</g>
	<g>
		<path fill="#FF3654" d="M6.75,52.239h-5.5c-0.69,0-1.25-0.56-1.25-1.25s0.56-1.25,1.25-1.25h5.5c0.69,0,1.25,0.56,1.25,1.25
			S7.44,52.239,6.75,52.239z"/>
	</g>
	<g>
		<path fill="#FF3654" d="M6.75,42.239h-5.5c-0.69,0-1.25-0.56-1.25-1.25s0.56-1.25,1.25-1.25h5.5c0.69,0,1.25,0.56,1.25,1.25
			S7.44,42.239,6.75,42.239z"/>
	</g>
	<g>
		<path fill="#FF3654" d="M6.75,32.239h-5.5c-0.69,0-1.25-0.56-1.25-1.25s0.56-1.25,1.25-1.25h5.5c0.69,0,1.25,0.56,1.25,1.25
			S7.44,32.239,6.75,32.239z"/>
	</g>
	<g>
		<path fill="#FF3654" d="M6.75,22.239h-5.5c-0.69,0-1.25-0.56-1.25-1.25s0.56-1.25,1.25-1.25h5.5c0.69,0,1.25,0.56,1.25,1.25
			S7.44,22.239,6.75,22.239z"/>
	</g>
	<g>
		<path fill="#FF3654" d="M6.75,12.239h-5.5c-0.69,0-1.25-0.56-1.25-1.25s0.56-1.25,1.25-1.25h5.5c0.69,0,1.25,0.56,1.25,1.25
			S7.44,12.239,6.75,12.239z"/>
	</g>
</g>
</svg>
