<?xml version="1.0" encoding="utf-8"?>
<!-- Generator: Adobe Illustrator 25.0.1, SVG Export Plug-In . SVG Version: 6.00 Build 0)  -->
<svg version="1.1" id="Layer_1" xmlns="http://www.w3.org/2000/svg" xmlns:xlink="http://www.w3.org/1999/xlink" x="0px" y="0px"
	 viewBox="0 0 64 64" style="enable-background:new 0 0 64 64;" xml:space="preserve">
<style type="text/css">
	.st0{clip-path:url(#SVGID_2_);fill:url(#SVGID_3_);}
	.st1{clip-path:url(#SVGID_2_);fill:url(#SVGID_4_);}
	.st2{clip-path:url(#SVGID_2_);fill:url(#SVGID_5_);}
	.st3{clip-path:url(#SVGID_2_);fill:url(#SVGID_6_);}
</style>
<g>
	<path d="M59.5,47c-1.5,3.3-2.2,4.8-4.2,7.8c-2.7,4.1-6.5,9.2-11.2,9.3c-4.2,0-5.3-2.7-11-2.7c-5.7,0-6.9,2.8-11.1,2.7
		c-4.7,0-8.3-4.7-11-8.8c-7.6-11.5-8.3-25-3.7-32.2C10.7,18,15.9,15,20.8,15c5,0,8.1,2.7,12.3,2.7c4,0,6.5-2.8,12.2-2.8
		c4.4,0,9,2.4,12.3,6.5C46.8,27.4,48.6,42.8,59.5,47z"/>
	<g>
		<path d="M40.9,10.4C43,7.7,44.6,3.9,44.1,0c-3.4,0.2-7.4,2.4-9.8,5.3c-2.1,2.6-3.9,6.4-3.2,10.1C34.8,15.5,38.7,13.3,40.9,10.4z"
			/>
	</g>
</g>
</svg>
