<?xml version="1.0" encoding="utf-8"?>
<!-- Generator: Adobe Illustrator 24.1.1, SVG Export Plug-In . SVG Version: 6.00 Build 0)  -->
<svg version="1.1" id="Layer_1" xmlns="http://www.w3.org/2000/svg" xmlns:xlink="http://www.w3.org/1999/xlink" x="0px" y="0px"
	 viewBox="0 0 208.9 69" style="enable-background:new 0 0 208.9 69;" xml:space="preserve">
<style type="text/css">
	.st0{fill:#FFFFFF;stroke:#EAEAEA;stroke-miterlimit:10;}
</style>
<g>
	<g>
		<path class="st0" d="M208.4,59.3c0,5.1-4.1,9.2-9.2,9.2H9.7c-5.1,0-9.2-4.1-9.2-9.2V9.7c0-5.1,4.1-9.2,9.2-9.2h189.5
			c5.1,0,9.2,4.1,9.2,9.2V59.3z"/>
		<g>
			<path d="M54.7,45.5c-1.1,2.4-1.6,3.5-3,5.7c-2,3-4.8,6.8-8.2,6.8c-3.1,0-3.9-2-8-2c-4.2,0-5,2-8.1,2c-3.5,0-6.1-3.4-8.1-6.4
				c-5.5-8.4-6.1-18.3-2.7-23.5c2.4-3.7,6.2-5.9,9.8-5.9c3.7,0,6,2,9,2c2.9,0,4.7-2,9-2c3.2,0,6.6,1.7,9,4.8
				C45.4,31.1,46.7,42.4,54.7,45.5z"/>
			<g>
				<path d="M41.1,18.7c1.5-2,2.7-4.8,2.3-7.6c-2.5,0.2-5.5,1.8-7.2,3.9c-1.6,1.9-2.8,4.7-2.3,7.4C36.6,22.4,39.5,20.8,41.1,18.7z"
					/>
			</g>
		</g>
		<g>
			<g>
				<path d="M71.6,19.7L63.6,43h3.6l2.4-7.2h7.7l2.4,7.2h3.7l-8-23.3H71.6z M73.4,23.5c0.3,1,0.6,2.1,0.9,3.3l2.1,6.2h-6.1l2.1-6.2
					C72.8,25.8,73.1,24.7,73.4,23.5z"/>
				<path d="M93.7,25.7c-2.4,0-4.3,0.9-5.6,2.7l-0.1-2.3h-3.2l0,0.3c0.1,1.4,0.1,3,0.1,5.3v18h3.5v-8.4c1.1,1.3,2.8,2.1,4.8,2.1
					c2.1,0,4-0.8,5.3-2.3c1.5-1.6,2.4-4,2.4-6.8c0-2.5-0.7-4.6-2.1-6.2C97.6,26.6,95.7,25.7,93.7,25.7z M92.8,28.6
					c3.1,0,4.5,2.9,4.5,5.8c0,3.7-1.8,6-4.7,6c-2,0-3.7-1.3-4.2-3.3c-0.1-0.3-0.1-0.7-0.1-1.1v-2.8c0-0.3,0.1-0.6,0.1-0.9
					c0-0.1,0-0.2,0-0.3C89.1,30.1,90.8,28.6,92.8,28.6z"/>
				<path d="M111.9,25.7c-2.4,0-4.3,0.9-5.6,2.7l-0.1-2.3h-3.2l0,0.3c0.1,1.4,0.1,3,0.1,5.3v18h3.5v-8.4c1.1,1.3,2.8,2.1,4.8,2.1
					c2.1,0,4-0.8,5.3-2.3c1.5-1.6,2.4-4,2.4-6.8c0-2.5-0.7-4.6-2.1-6.2C115.7,26.6,113.9,25.7,111.9,25.7z M111,28.6
					c3.1,0,4.6,2.9,4.6,5.8c0,3.7-1.8,6-4.7,6c-2,0-3.7-1.3-4.2-3.3c-0.1-0.3-0.1-0.7-0.1-1.1v-2.8c0-0.3,0.1-0.6,0.1-0.9
					c0-0.1,0-0.2,0.1-0.3C107.3,30.1,109,28.6,111,28.6z"/>
				<path d="M134.6,29.6c-3.3-1.3-4.3-2.3-4.3-4.1c0-1.6,1.2-3.1,4-3.1c2.3,0,3.7,0.8,4.1,1l0.3,0.2l1-2.9l-0.2-0.1
					c-0.6-0.3-2.3-1.1-5.1-1.1c-4.5,0-7.6,2.7-7.6,6.5c0,3.1,2,5.2,6.2,6.7c3,1.1,4.1,2.3,4.1,4.2c0,2.2-1.7,3.6-4.5,3.6
					c-1.8,0-3.7-0.5-5.1-1.4l-0.3-0.2l-0.9,3l0.2,0.1c1.3,0.9,3.8,1.5,6,1.5c6.1,0,8.2-3.7,8.2-6.9
					C140.6,33.2,138.8,31.2,134.6,29.6z"/>
				<path d="M146.9,22.1l-3.5,1.1v2.9h-2.5v2.8h2.5v8.6c0,2.1,0.4,3.5,1.2,4.5c0.8,0.9,2,1.3,3.4,1.3c1.3,0,2.3-0.3,2.7-0.4l0.2-0.1
					l-0.2-2.8l-0.3,0.1c-0.4,0.1-0.9,0.2-1.6,0.2c-1.4,0-1.9-0.9-1.9-2.9v-8.5h4.2v-2.8h-4.2V22.1z"/>
				<path d="M159.9,25.7c-4.9,0-8.4,3.7-8.4,9c0,5.1,3.3,8.7,8.1,8.7h0c4,0,8.4-2.8,8.4-9c0-2.5-0.8-4.7-2.2-6.2
					C164.3,26.6,162.3,25.7,159.9,25.7z M159.8,28.5c3.2,0,4.6,3.1,4.6,6c0,3.5-2,6.1-4.7,6.1h0c-2.7,0-4.6-2.5-4.6-6
					C155.1,31.6,156.5,28.5,159.8,28.5z"/>
				<path d="M178.8,25.9l-0.2-0.1c-0.3-0.1-0.6-0.1-0.9-0.1c-1.8,0-3.5,1.1-4.4,2.8l-0.1-2.5h-3.2l0,0.3c0.1,1.4,0.1,3,0.1,5.1
					l0,11.5h3.5v-9c0-0.5,0-1,0.1-1.4c0.4-2.2,1.9-3.6,3.7-3.6c0.4,0,0.6,0,0.9,0.1l0.4,0V25.9z"/>
				<path d="M186.8,25.7c-4.7,0-8,3.7-8,9.1c0,5.2,3.3,8.5,8.3,8.5c2.7,0,4.5-0.6,5.6-1.1l0.2-0.1l-0.7-2.6l-0.3,0.1
					c-1,0.4-2.2,0.8-4.4,0.8c-1.5,0-5.1-0.5-5.3-5.1l11.4,0l0-0.2c0.1-0.4,0.1-0.8,0.1-1.5C193.8,30,191.9,25.7,186.8,25.7z
					 M186.5,28.4c1.1,0,1.9,0.3,2.6,1c1,1,1.2,2.6,1.2,3.3h-8C182.6,30.6,183.9,28.4,186.5,28.4z"/>
			</g>
		</g>
	</g>
</g>
</svg>
