<svg version="1.1" id="Layer_1" xmlns="http://www.w3.org/2000/svg" xmlns:xlink="http://www.w3.org/1999/xlink" x="0px" y="0px" width="25px" height="25px" viewBox="0 0 46.932 50.505" enable-background="new 0 0 46.932 50.505" xml:space="preserve">
    <g>
        <path fill="#ac232a" d="M13.376,33.254h27.828c3.155,0,5.728-2.573,5.728-5.729V15.816c0-0.011,0-0.031,0-0.041
        c0-0.032,0-0.053,0-0.084c0-0.021,0-0.041-0.01-0.062c0-0.021-0.01-0.052-0.01-0.072S46.9,15.515,46.9,15.495
        c-0.009-0.021-0.009-0.043-0.02-0.073c-0.011-0.021-0.011-0.042-0.02-0.062c-0.011-0.02-0.011-0.042-0.021-0.062
        c-0.01-0.021-0.021-0.041-0.031-0.073c-0.01-0.02-0.021-0.041-0.031-0.051c-0.01-0.021-0.021-0.041-0.031-0.062
        c-0.01-0.021-0.021-0.031-0.031-0.052s-0.031-0.042-0.041-0.063c-0.01-0.02-0.021-0.029-0.041-0.051
        c-0.012-0.021-0.031-0.031-0.038-0.052c-0.015-0.021-0.034-0.031-0.042-0.053c-0.015-0.02-0.034-0.03-0.042-0.041
        c-0.023-0.021-0.034-0.031-0.055-0.052c-0.021-0.01-0.029-0.031-0.052-0.041c-0.021-0.012-0.041-0.032-0.061-0.041
        c-0.022-0.011-0.032-0.021-0.055-0.032c-0.021-0.011-0.041-0.021-0.062-0.041c-0.021-0.011-0.041-0.021-0.062-0.032
        c-0.021-0.01-0.044-0.02-0.062-0.03c-0.021-0.011-0.043-0.021-0.063-0.031c-0.021-0.01-0.04-0.01-0.062-0.021
        c-0.021-0.012-0.052-0.021-0.073-0.021c-0.021,0-0.041-0.01-0.051-0.01c-0.033-0.011-0.052-0.011-0.084-0.011
        c-0.011,0-0.021-0.01-0.042-0.01l-35.27-4.869v-4.92c0-0.051,0-0.104-0.01-0.145c0-0.011,0-0.021-0.011-0.041
        c0-0.031-0.011-0.063-0.011-0.094c-0.01-0.031-0.01-0.053-0.022-0.084c0-0.02-0.009-0.03-0.009-0.052
        c-0.01-0.03-0.021-0.062-0.031-0.094c0-0.01-0.01-0.03-0.01-0.041c-0.012-0.031-0.021-0.052-0.043-0.083
        c-0.01-0.011-0.01-0.031-0.02-0.041c-0.012-0.021-0.021-0.041-0.043-0.063c-0.009-0.02-0.02-0.03-0.031-0.051
        c-0.008-0.021-0.021-0.031-0.03-0.052c-0.01-0.021-0.031-0.042-0.041-0.062c-0.01-0.011-0.021-0.021-0.03-0.03
        c-0.021-0.022-0.042-0.043-0.063-0.063c-0.011-0.011-0.021-0.021-0.03-0.031c-0.021-0.021-0.041-0.041-0.074-0.062
        c-0.009-0.01-0.031-0.021-0.04-0.032c-0.021-0.02-0.041-0.03-0.062-0.052C9.815,3.443,9.785,3.423,9.764,3.412
        c-0.012-0.01-0.021-0.01-0.031-0.021C9.688,3.37,9.639,3.35,9.598,3.329L1.948,0.111C1.231-0.19,0.41,0.143,0.111,0.859
        C-0.19,1.575,0.143,2.395,0.857,2.696l6.789,2.864v6.353v1.008v7.722v6.902v8.719c0,2.906,2.179,5.314,4.992,5.678
        c-0.509,0.852-0.81,1.849-0.81,2.907c0,3.124,2.543,5.656,5.655,5.656c3.115,0,5.658-2.543,5.658-5.656
        c0-1.039-0.279-2.024-0.777-2.854h12.602c-0.498,0.842-0.779,1.815-0.779,2.854c0,3.124,2.543,5.656,5.656,5.656
        c3.114,0,5.657-2.543,5.657-5.656c0-3.114-2.543-5.657-5.657-5.657H13.376c-1.621,0-2.927-1.317-2.927-2.928v-3.799
        C11.303,32.964,12.307,33.254,13.376,33.254z M20.352,44.838c0,1.578-1.287,2.854-2.855,2.854c-1.566,0-2.854-1.287-2.854-2.854
        s1.288-2.854,2.854-2.854C19.064,41.983,20.352,43.26,20.352,44.838z M42.707,44.838c0,1.578-1.285,2.854-2.852,2.854
        c-1.57,0-2.855-1.287-2.855-2.854s1.285-2.854,2.855-2.854C41.422,41.983,42.707,43.26,42.707,44.838z M41.204,30.452H13.376
        c-1.621,0-2.927-1.318-2.927-2.928v-6.902v-7.723v-0.519l33.682,4.64v10.493C44.131,29.144,42.812,30.452,41.204,30.452z"/>
    </g>
</svg>