<svg id="Layer_1" data-name="Layer 1" xmlns="http://www.w3.org/2000/svg" viewBox="0 0 62 62"><defs><style>.cls-1{fill:#ff9d00;}</style></defs><path class="cls-1" d="M12.84,51.1h1.81V25.55H12.84a12.19,12.19,0,0,0-1.82.13V18.16h7.27V16.35a5.45,5.45,0,0,1,5.44-5.45H38.27a5.45,5.45,0,0,1,5.44,5.45v1.81H51v7.52a12.19,12.19,0,0,0-1.82-.13H47.35V51.1h1.81A12.19,12.19,0,0,0,51,51v2a1.81,1.81,0,0,1-1.82,1.81H39.77a5.46,5.46,0,0,0-5.14-3.63H27.37a5.45,5.45,0,0,0,0,10.9h7.26a5.46,5.46,0,0,0,5.14-3.63h9.39a5.46,5.46,0,0,0,5.45-5.45v-3A12.92,12.92,0,0,0,62,38.27a12.78,12.78,0,0,0-7.39-11.51V16.35A16.36,16.36,0,0,0,38.27,0H23.73A16.36,16.36,0,0,0,7.39,16.35V26.76A12.76,12.76,0,0,0,0,38.27,12.9,12.9,0,0,0,12.84,51.1Zm21.79,7.27H27.37a1.82,1.82,0,1,1,0-3.64h7.26a1.82,1.82,0,1,1,0,3.64Zm23.74-20.1a9.36,9.36,0,0,1-7.39,9V29.36A9.14,9.14,0,0,1,58.37,38.27ZM23.73,3.63H38.27a12.73,12.73,0,0,1,12.58,10.9H47.17a9.1,9.1,0,0,0-8.9-7.26H23.73a9.1,9.1,0,0,0-8.9,7.26H11.15A12.73,12.73,0,0,1,23.73,3.63ZM11,29.36V47.28a9.36,9.36,0,0,1-7.39-9A9.14,9.14,0,0,1,11,29.36Z"/></svg>