<?xml version="1.0" encoding="utf-8"?>
<!-- Generator: Adobe Illustrator 24.1.2, SVG Export Plug-In . SVG Version: 6.00 Build 0)  -->
<svg version="1.1" id="Layer_1" xmlns="http://www.w3.org/2000/svg" xmlns:xlink="http://www.w3.org/1999/xlink" x="0px" y="0px"
	 viewBox="0 0 32.4 30" style="enable-background:new 0 0 32.4 30;" xml:space="preserve">
<style type="text/css">
	.st0{fill:#86C03F;}
	.st1{fill:#E71C24;}
</style>
<g>
	<g>
		<path class="st0" d="M29.5,6.9h-0.4V3c0-1.6-1.3-3-3-3H4.6C2.2,0,0.3,1.8,0,4.1c0,0.2,0-1.3,0,21.3C0,27.9,2.1,30,4.6,30h24.9
			c1.6,0,3-1.3,3-3V9.9C32.4,8.2,31.1,6.9,29.5,6.9L29.5,6.9z M4.6,2h21.5C26.6,2,27,2.5,27,3v3.9H4.6C3.2,6.9,2.1,5.8,2,4.5
			C2.1,3.1,3.2,2,4.6,2z M29.5,28H4.6C3.2,28,2,26.8,2,25.4V8.2c0.7,0.5,1.6,0.8,2.5,0.8h24.9c0.5,0,0.9,0.4,0.9,0.9V14h-7.7
			c-2.6,0-4.7,2.1-4.7,4.7s2.1,4.7,4.7,4.7h7.7V27C30.4,27.5,30,28,29.5,28L29.5,28z M30.4,21.4h-7.7c-1.5,0-2.7-1.2-2.7-2.7
			s1.2-2.7,2.7-2.7h7.7V21.4z"/>
		<circle class="st0" cx="23.1" cy="18.7" r="1.5"/>
	</g>
	<g>
		<g>
			<g>
				<path class="st0" d="M7.2,18.7c0.2-0.2,0.3-0.1,0.5,0.1l3.5,3.5l3.5-3.5c0.2-0.2,0.4-0.3,0.5-0.1c0.2,0.2,0.1,0.4-0.1,0.5l0,0
					l-3.6,3.6c-0.2,0.2-0.4,0.2-0.6,0l-3.6-3.6C7.1,19.1,7,18.9,7.2,18.7L7.2,18.7z"/>
				<path class="st0" d="M15,18.4C15,18.4,15,18.4,15,18.4c0.1,0,0.2,0,0.4,0.2c0.1,0.1,0.2,0.3,0.1,0.5c0,0.1-0.1,0.3-0.2,0.4
					l-3.6,3.6c-0.3,0.3-0.7,0.3-1,0l-3.6-3.6C6.7,19,6.9,18.6,7,18.5c0.1-0.1,0.4-0.3,0.9,0.1l3.3,3.3l3.3-3.3
					C14.7,18.5,14.9,18.4,15,18.4z M11.2,22.7L7.5,19c-0.1-0.1-0.1-0.1-0.2-0.1l0,0c0,0,0,0,0,0c0,0,0,0.1,0.1,0.2l3.6,3.6
					c0.1,0.1,0.2,0.1,0.3,0l3.6-3.6c0.1-0.1,0.1-0.1,0.1-0.2c-0.1,0-0.1,0-0.2,0.1L11.2,22.7z"/>
			</g>
		</g>
		<g>
			<g>
				<path class="st0" d="M11.2,13c0.2,0,0.3,0.1,0.3,0.3l0,9.3c0,0.2-0.1,0.3-0.3,0.3c-0.2,0-0.3-0.1-0.3-0.3l0-9.3
					C10.9,13.1,11,13,11.2,13z"/>
				<path class="st0" d="M11.2,12.8c0.3,0,0.6,0.3,0.6,0.6l0,9.3c0,0.3-0.3,0.6-0.6,0.6s-0.6-0.3-0.6-0.6l0-9.3
					C10.6,13,10.9,12.8,11.2,12.8z M11.2,22.7C11.3,22.7,11.3,22.7,11.2,22.7l0.1-9.4c0-0.1-0.2-0.1-0.2,0L11.2,22.7
					C11.1,22.7,11.2,22.7,11.2,22.7z"/>
			</g>
		</g>
	</g>
</g>
</svg>
