<?xml version="1.0" encoding="utf-8"?>
<!-- Generator: Adobe Illustrator 24.1.3, SVG Export Plug-In . SVG Version: 6.00 Build 0)  -->
<svg version="1.1" id="Layer_1" xmlns="http://www.w3.org/2000/svg" xmlns:xlink="http://www.w3.org/1999/xlink" x="0px" y="0px"
	 viewBox="0 0 20.81 15" style="enable-background:new 0 0 20.81 15;" xml:space="preserve">
<g>
	<path d="M20.73,9.55c-0.8-0.96-1.97-1.5-3.21-1.5c-0.21,0-0.41,0.02-0.61,0.05c-0.14-0.9-0.98-2.08-1.8-3.05V2.16
		c0-0.11-0.05-0.21-0.13-0.27c-0.09-0.06-0.2-0.09-0.3-0.06l-0.55,0.15c-0.3,0.08-0.55,0.24-0.75,0.46L13.07,1.1
		c-0.03-0.16-0.17-0.27-0.33-0.27h-0.59V0.34c0-0.19-0.15-0.34-0.34-0.34c-0.19,0-0.34,0.15-0.34,0.34v1.71
		c0,0.19,0.15,0.34,0.34,0.34c0.19,0,0.34-0.15,0.34-0.34V1.51h0.32l0.42,1.93c-0.18,0.19-0.3,0.42-0.35,0.68L11.56,5.2
		c-0.13,0.14-0.12,0.35,0.02,0.48c0.07,0.06,0.15,0.09,0.23,0.09c0.09,0,0.18-0.04,0.25-0.11L12.65,5c0.04,0.09,0.09,0.17,0.16,0.25
		c0.39,0.49,0.92,1.23,1.27,2.01c0.38,0.84,0.47,1.55,0.27,2.09c-0.3,0.79-1.16,1.39-2.31,1.62c-1.23,0.24-2.45-0.02-3.03-0.64
		c-0.26-0.28-0.37-0.55-0.35-0.84C8.68,8.98,9.13,8.36,10,7.66c0,0,0.07-0.08,0.07-0.08c0.27-0.38,0.3-0.88,0.09-1.29
		C9.94,5.87,9.51,5.6,9.04,5.6H4.13c-0.94,0-1.71,0.72-1.79,1.65c-0.2,0.2-0.65,0.69-1.11,1.34C0.41,9.75,0,10.83,0,11.81
		c0,0.19,0.15,0.34,0.34,0.34h0.73H1.5c0,0.02,0,0.05,0,0.07C1.5,13.75,2.75,15,4.28,15c1.29,0,2.38-0.88,2.69-2.08h7.86
		c0.31,1.19,1.4,2.08,2.69,2.08c1.53,0,2.78-1.25,2.78-2.78c0-0.56-0.17-1.08-0.45-1.52l0.84-0.67c0.07-0.06,0.12-0.14,0.13-0.23
		C20.81,9.71,20.78,9.62,20.73,9.55z M6.38,7.06H3.07c0.14-0.45,0.56-0.77,1.06-0.77h2.26h0.68h1.97c0.22,0,0.41,0.12,0.51,0.31
		c0.08,0.15,0.09,0.31,0.03,0.46H7.06H6.38z M5.65,12.15h0.73c0,0.02,0,0.05,0,0.07c0,1.16-0.94,2.1-2.1,2.1
		c-1.16,0-2.1-0.94-2.1-2.1c0-0.03,0-0.05,0-0.07h0.73H5.65z M6.51,11.47h-5c0.11-0.32,0.32-0.8,0.68-1.26
		c0.82-1.05,2.02-1.53,3.57-1.42c0.69,0.05,1.12,0.23,1.28,0.54C7.26,9.72,7.08,10.44,6.51,11.47z M13.33,12.24H7.06
		c0-0.01,0-0.02,0-0.02c0-0.1-0.01-0.21-0.02-0.31C7.57,10.99,8.09,9.84,7.64,9c-0.28-0.53-0.9-0.83-1.83-0.9
		c-2.24-0.16-3.5,0.84-4.17,1.71c-0.49,0.64-0.73,1.3-0.84,1.66H0.7c0.19-1.66,1.72-3.32,2.12-3.73H8.9C8.31,8.34,8,8.9,7.96,9.44
		c-0.03,0.48,0.14,0.93,0.53,1.35c0.75,0.81,2.19,1.14,3.66,0.85c0.48-0.09,0.92-0.25,1.3-0.45c-0.08,0.33-0.13,0.67-0.13,1.03
		C13.33,12.23,13.33,12.24,13.33,12.24z M14.3,2.64l0.12-0.03v1.66c-0.35-0.38-0.65-0.68-0.81-0.84C13.66,3.05,13.93,2.74,14.3,2.64
		z M13.34,4.83c-0.12-0.15-0.17-0.34-0.15-0.52c0.01-0.09,0.04-0.18,0.08-0.25c0.99,0.99,2.86,3.09,2.96,4.19
		c-0.4,0.13-0.77,0.32-1.11,0.55C15.15,7.91,14.76,6.62,13.34,4.83z M17.51,14.32c-1.16,0-2.1-0.94-2.1-2.1c0-1.16,0.94-2.1,2.1-2.1
		c1.16,0,2.1,0.94,2.1,2.1C19.61,13.38,18.67,14.32,17.51,14.32z M19.4,10.18c-0.5-0.46-1.16-0.74-1.88-0.74
		c-1.53,0-2.78,1.25-2.78,2.78c0,0.01,0,0.02,0,0.02h-0.72c0-0.01,0-0.02,0-0.02c0-1.93,1.57-3.5,3.5-3.5c0.93,0,1.8,0.36,2.45,1
		L19.4,10.18z"/>
</g>
</svg>
