<?xml version="1.0" encoding="utf-8"?>
<!-- Generator: Adobe Illustrator 25.0.1, SVG Export Plug-In . SVG Version: 6.00 Build 0)  -->
<svg version="1.1" id="Layer_1" xmlns="http://www.w3.org/2000/svg" xmlns:xlink="http://www.w3.org/1999/xlink" x="0px" y="0px"
	 viewBox="0 0 383 224.1" style="enable-background:new 0 0 383 224.1;" xml:space="preserve">
<g>
	<path d="M0,134.1c1.9-4.4,5.3-6.1,10.1-6.1c30.8,0.1,61.6,0.1,92.3,0.1c5.9,0,9.4,3.2,9.2,8.4c-0.1,3.8-2.8,6.9-6.6,7.4
		c-1.4,0.2-2.7,0.2-4.1,0.2c-30,0-60.1-0.1-90.1,0.1c-4.8,0-8.4-1.3-10.8-5.5C0,137.1,0,135.6,0,134.1z"/>
	<path d="M262.6,48c4.1,0,7.7,0,11.3,0c15,0.2,30-0.3,44.9,0.6c31.9,2.1,59.9,29.8,63.9,61.7c1.3,10.7-1.7,20.6-3.4,30.7
		c-2.4,14.4-5.3,28.7-8,43.1c-1.1,5.8-3.5,7.8-9.5,7.9c-3.5,0-7,0.1-10.5,0.1c-0.2,0-0.5,0.2-0.9,0.3c-1.8,6.9-4.7,13.3-9.7,18.6
		c-10.5,11-23.3,15.4-38.1,12c-14.9-3.3-24.8-12.8-29.5-27.4c-0.9-2.7-1.9-3.7-4.8-3.7c-29.9,0.1-59.9,0.1-89.8,0
		c-2.9,0-4,0.8-4.9,3.6c-5.1,17.2-20.6,28.6-38.3,28.5c-17.5-0.1-33.2-11.8-38.1-28.9c-0.7-2.6-1.8-3.3-4.3-3.2
		c-6.7,0.2-13.5,0.1-20.2,0c-5.4-0.1-9-3.2-9-7.9c0-4.8,3.6-8,9.3-8c7.7,0,15.5,0,23.2,0c1-2.9,1.8-5.6,3-8.2
		c6.7-15,22.3-24.7,37.9-23.7c17.6,1.1,31.6,11.9,36.5,28.4c0.9,3,2.2,3.7,5.1,3.7c12.3-0.2,24.7-0.1,37-0.1c0.2,0,0.5-0.1,1.1-0.3
		c12.1-52.9,24.1-106,36.3-159.6c-2.1,0-3.6,0-5.2,0c-57.6,0-115.2,0-172.9,0c-1.9,0-3.8,0-5.6-0.5c-3.5-0.8-6-4.2-5.9-7.7
		c0.1-3.4,2.4-6.6,5.8-7.4C71.2,0.1,72.9,0,74.5,0c62.1,0,124.2,0,186.3,0c8.7,0,11.8,3.9,9.9,12.3C268.1,24,265.4,35.7,262.6,48z
		 M272.2,176c4.9-20,21.1-31.5,38.8-31.9c18.3-0.4,31.8,10.4,39.8,31.8c1.9,0,3.9,0,6,0c2.9-15.5,5.7-30.8,8.6-46.1
		c1.3-7,2.7-13.9,1.1-21.1c-5.6-25.5-27.5-43.9-53.6-44.4c-11-0.2-21.9-0.1-32.9-0.1c-6.8,0-13.7,0-20.8,0
		c-8.5,37.4-16.9,74.5-25.4,111.8C246.8,176,259.4,176,272.2,176z M311.6,160.2c-13.3-0.1-24.1,10.6-24.1,23.8
		c0,13.2,10.8,24.1,24,24.1c13,0,23.8-10.8,23.9-23.8C335.5,171,324.8,160.2,311.6,160.2z M159.5,184.5c0-13.7-10.1-24.2-23.5-24.4
		c-13.3-0.1-24,10.4-24.1,23.5c0,13.7,10.6,24.6,23.9,24.5C148.9,208,159.4,197.5,159.5,184.5z"/>
	<path d="M63.9,96c-12.6,0-25.2,0-37.8,0c-1.6,0-3.3,0-4.8-0.5c-3.2-0.9-5.5-4.5-5.3-7.8c0.2-3.7,3-6.9,6.7-7.5
		c0.9-0.1,1.7-0.1,2.6-0.1c25.7,0,51.4,0,77.1,0c3.6,0,6.7,1,8.4,4.4c2.8,5.4-0.9,11.4-7.2,11.5c-9.5,0.2-19,0.1-28.4,0.1
		C71.4,96,67.7,96,63.9,96z"/>
	<path d="M71.7,48c-10.1,0-20.2,0-30.3,0c-5.9,0-9.3-2.9-9.3-7.8c0-5,3.5-8.1,9.5-8.1c20.4,0,40.9,0,61.3,0c7,0,11,6.4,7.8,12
		c-1.8,3-4.6,4-7.9,3.9C92.4,48,82,48,71.7,48z"/>
</g>
</svg>
