<?xml version="1.0" encoding="utf-8"?>
<!-- Generator: Adobe Illustrator 16.0.0, SVG Export Plug-In . SVG Version: 6.00 Build 0)  -->
<!DOCTYPE svg PUBLIC "-//W3C//DTD SVG 1.1//EN" "http://www.w3.org/Graphics/SVG/1.1/DTD/svg11.dtd">
<svg version="1.1" id="Layer_1" xmlns="http://www.w3.org/2000/svg" xmlns:xlink="http://www.w3.org/1999/xlink" x="0px" y="0px"
	 width="66.148px" height="60px" viewBox="0 0 66.148 60" enable-background="new 0 0 66.148 60" xml:space="preserve">
<g>
	<path fill="#FF9D00" d="M46.865,0c-3.085,0-6.032,0.707-8.762,2.102c-1.858,0.949-3.564,2.211-5.029,3.707
		c-1.465-1.496-3.171-2.757-5.029-3.707C25.315,0.707,22.368,0,19.283,0C8.65,0,0,8.651,0,19.284c0,7.531,3.978,15.53,11.821,23.774
		c6.55,6.884,14.569,12.622,20.143,16.224L33.074,60l1.11-0.718c5.573-3.602,13.593-9.34,20.143-16.224
		c7.845-8.244,11.821-16.243,11.821-23.774C66.148,8.651,57.498,0,46.865,0z M51.362,40.238C45.508,46.39,38.379,51.62,33.074,55.12
		c-5.305-3.5-12.435-8.73-18.288-14.882C7.689,32.78,4.091,25.73,4.091,19.284c0-8.377,6.815-15.192,15.192-15.192
		c4.822,0,9.254,2.215,12.155,6.078l1.636,2.178l1.635-2.178c2.902-3.862,7.333-6.078,12.156-6.078
		c8.377,0,15.191,6.815,15.191,15.192C62.057,25.73,58.459,32.78,51.362,40.238z"/>
</g>
</svg>
