<?xml version="1.0" encoding="utf-8"?>
<!-- Generator: Adobe Illustrator 24.1.3, SVG Export Plug-In . SVG Version: 6.00 Build 0)  -->
<svg version="1.1" id="Layer_1" xmlns="http://www.w3.org/2000/svg" xmlns:xlink="http://www.w3.org/1999/xlink" x="0px" y="0px"
	 viewBox="0 0 27.8 25.5" style="enable-background:new 0 0 27.8 25.5;" xml:space="preserve">
<style type="text/css">
	.st0{fill:#FF3333;}
</style>
<g>
	<g>
		<g>
			<g>
				<path class="st0" d="M13.9,25.5L13,24.9c-2.3-1.5-5.5-3.8-8.1-6.6C1.6,15,0,11.6,0,8.4C0,3.8,3.8,0,8.4,0c1.4,0,2.6,0.3,3.8,0.9
					c0.6,0.3,1.1,0.7,1.6,1.1c0.5-0.4,1.1-0.8,1.6-1.1C16.7,0.3,18,0,19.4,0c4.6,0,8.4,3.8,8.4,8.4c0,3.2-1.6,6.6-4.9,10
					c-2.6,2.8-5.9,5.1-8.1,6.6L13.9,25.5z"/>
			</g>
		</g>
	</g>
</g>
<g>
	<g>
		<g>
			<g>
				<path class="st0" d="M59.7,8.4l-0.9-0.6c-2.3-1.5-5.5-3.8-8.1-6.6c-3.3-3.4-4.9-6.8-4.9-10c0-4.7,3.8-8.4,8.4-8.4
					c1.4,0,2.6,0.3,3.8,0.9c0.6,0.3,1.1,0.7,1.6,1.1c0.5-0.4,1.1-0.8,1.6-1.1c1.2-0.6,2.5-0.9,3.8-0.9c4.7,0,8.4,3.8,8.4,8.4
					c0,3.2-1.7,6.6-4.9,10c-2.6,2.8-5.9,5.1-8.1,6.6L59.7,8.4z"/>
			</g>
		</g>
	</g>
</g>
</svg>
