<svg version="1.1" id="Layer_1" xmlns="http://www.w3.org/2000/svg" xmlns:xlink="http://www.w3.org/1999/xlink" x="0px" y="0px" width="25px" height="25px" viewBox="0 0 63.149 63.548" enable-background="new 0 0 63.149 63.548" xml:space="preserve">
    <path fill="#ac232a" d="M62.802,28.997L31.574,0L0.35,28.997c-0.443,0.41-0.467,1.1-0.059,1.54c0.408,0.439,1.102,0.465,1.541,0.057
    l3.613-3.355v36.31h17.42h17.42h17.422V27.236l3.613,3.355c0.209,0.195,0.477,0.291,0.742,0.291c0.293,0,0.584-0.116,0.795-0.348
    C63.27,30.097,63.242,29.407,62.802,28.997z M25.043,61.371V43.947c0-3.599,2.93-6.531,6.531-6.531c3.604,0,6.535,2.933,6.535,6.531
    v17.424H25.043z M55.531,61.371H40.285V43.947c0-4.799-3.908-8.707-8.711-8.707c-4.801,0-8.709,3.908-8.709,8.707v17.424H7.623
    V25.213L31.574,2.971l23.957,22.242V61.371z"/>
</svg>