<svg id="Layer_1" data-name="Layer 1" xmlns="http://www.w3.org/2000/svg" viewBox="0 0 55 48.02">
    <path fill="#7B3DD9" d="M39.08,26.15H31.6a3.72,3.72,0,0,0-3.71,3.71v5.73A3.72,3.72,0,0,0,31.6,39.3h7.48a3.71,3.71,0,0,0,3.7-3.71V29.86A3.71,3.71,0,0,0,39.08,26.15Zm1,9.44a1,1,0,0,1-1,1H31.6a1,1,0,0,1-1-1V29.86a1,1,0,0,1,1-1h7.48a1,1,0,0,1,1,1Z"/>
    <path fill="#7B3DD9" d="M55,15.73a1.28,1.28,0,0,0-.18-.66L46.64.69A1.36,1.36,0,0,0,45.47,0H9.52A1.34,1.34,0,0,0,8.35.69L.18,15.07a1.39,1.39,0,0,0-.18.66A7.89,7.89,0,0,0,4.72,23V46.67A1.36,1.36,0,0,0,6.07,48H48.92a1.36,1.36,0,0,0,1.35-1.35V23.12a.71.71,0,0,0,0-.15A7.91,7.91,0,0,0,55,15.73Zm-44.69-13H44.68L51.08,14H3.92ZM39.14,16.64a5.18,5.18,0,0,1-10.2,0Zm-13.07,0a5.19,5.19,0,0,1-10.21,0Zm-23.28,0H13a5.19,5.19,0,0,1-10.21,0ZM22.66,45.32H14.9V30.77a1.92,1.92,0,0,1,1.92-1.92h3.93a1.92,1.92,0,0,1,1.92,1.92V45.32Zm24.91,0H25.35V30.77a4.62,4.62,0,0,0-4.62-4.62H16.81a4.63,4.63,0,0,0-4.62,4.62V45.34H7.42V23.61h.47a7.88,7.88,0,0,0,6.54-3.48,7.89,7.89,0,0,0,13.08,0,7.87,7.87,0,0,0,13.06,0,7.88,7.88,0,0,0,6.54,3.48h.46V45.32Zm-.46-24.39A5.19,5.19,0,0,1,42,16.66H52.22A5.21,5.21,0,0,1,47.11,20.93Z"/></svg>