<?xml version="1.0" encoding="utf-8"?>
<!-- Generator: Adobe Illustrator 16.0.0, SVG Export Plug-In . SVG Version: 6.00 Build 0)  -->
<!DOCTYPE svg PUBLIC "-//W3C//DTD SVG 1.1//EN" "http://www.w3.org/Graphics/SVG/1.1/DTD/svg11.dtd">
<svg version="1.1" id="Layer_1" xmlns="http://www.w3.org/2000/svg" xmlns:xlink="http://www.w3.org/1999/xlink" x="0px" y="0px"
	 width="44.16px" height="31.838px" viewBox="0 0 44.16 31.838" enable-background="new 0 0 44.16 31.838" xml:space="preserve">
<g>
	<path fill="#35424B" d="M43.992,20.264c-1.695-2.029-4.179-3.194-6.82-3.194c-0.44,0-0.875,0.033-1.301,0.096
		c-0.294-1.9-2.08-4.416-3.812-6.473V4.576c0-0.225-0.105-0.438-0.285-0.574c-0.181-0.137-0.414-0.182-0.629-0.121l-1.178,0.324
		c-0.628,0.173-1.177,0.516-1.603,0.969l-0.618-2.843c-0.071-0.332-0.366-0.568-0.705-0.568H25.78V0.722
		C25.78,0.323,25.459,0,25.061,0s-0.723,0.323-0.723,0.722v3.634c0,0.399,0.324,0.722,0.723,0.722s0.72-0.323,0.72-0.722v-1.15
		h0.679l0.89,4.091c-0.38,0.401-0.637,0.899-0.744,1.448l-2.078,2.284c-0.269,0.295-0.247,0.751,0.047,1.02
		c0.14,0.126,0.312,0.188,0.487,0.188c0.195,0,0.391-0.08,0.533-0.236l1.254-1.379c0.091,0.184,0.201,0.36,0.333,0.525
		c0.818,1.033,1.949,2.614,2.694,4.276c0.805,1.793,0.994,3.283,0.566,4.429c-0.627,1.673-2.465,2.959-4.911,3.442
		c-2.612,0.516-5.2-0.034-6.438-1.368c-0.547-0.587-0.791-1.17-0.748-1.782c0.076-1.089,1.043-2.396,2.875-3.883
		c0.004-0.002,0.15-0.167,0.152-0.17c0.565-0.814,0.637-1.863,0.183-2.746c-0.46-0.894-1.37-1.45-2.376-1.45H8.76
		c-1.991,0-3.631,1.539-3.791,3.492c-0.414,0.422-1.382,1.455-2.359,2.845C0.879,20.691,0,22.99,0,25.06
		c0,0.398,0.322,0.722,0.722,0.722h1.543h0.928c-0.002,0.052-0.003,0.105-0.003,0.159c0,3.252,2.646,5.898,5.897,5.898
		c2.737,0,5.042-1.874,5.705-4.405h16.676c0.662,2.532,2.968,4.405,5.704,4.405c3.254,0,5.898-2.646,5.898-5.898
		c0-1.191-0.356-2.301-0.965-3.229l1.782-1.421c0.151-0.121,0.248-0.298,0.269-0.49C44.176,20.605,44.115,20.413,43.992,20.264z
		 M13.547,14.977H6.513c0.306-0.95,1.198-1.639,2.247-1.639h4.787h1.441h4.189c0.469,0,0.877,0.249,1.093,0.666
		c0.16,0.312,0.181,0.659,0.067,0.973h-5.35H13.547z M11.997,25.782h1.54c0.002,0.052,0.003,0.105,0.003,0.159
		c0,2.456-1.997,4.454-4.453,4.454c-2.457,0-4.452-1.997-4.452-4.454c0-0.053,0-0.106,0.002-0.159h1.539H11.997z M13.824,24.337
		H3.217c0.24-0.689,0.683-1.703,1.441-2.68c1.745-2.237,4.293-3.254,7.576-3.023c1.455,0.103,2.369,0.486,2.718,1.14
		C15.406,20.629,15.027,22.163,13.824,24.337z M28.303,25.989H14.984c0-0.017,0.001-0.032,0.001-0.049
		c0-0.219-0.014-0.438-0.038-0.653c1.117-1.961,2.232-4.402,1.278-6.192c-0.599-1.122-1.905-1.761-3.892-1.901
		c-4.756-0.334-7.439,1.788-8.853,3.626c-1.046,1.361-1.56,2.753-1.781,3.518H1.486c0.412-3.523,3.648-7.051,4.492-7.917h12.91
		c-1.253,1.278-1.902,2.472-1.984,3.621c-0.072,1.018,0.307,1.982,1.129,2.866c1.591,1.712,4.642,2.419,7.776,1.801
		c1.015-0.2,1.946-0.525,2.765-0.954c-0.178,0.7-0.272,1.431-0.272,2.185C28.302,25.957,28.303,25.973,28.303,25.989z M30.351,5.597
		l0.265-0.072v3.531c-0.743-0.806-1.373-1.439-1.729-1.79C28.998,6.479,29.569,5.813,30.351,5.597z M28.312,10.249
		c-0.252-0.317-0.362-0.712-0.311-1.113c0.024-0.193,0.083-0.375,0.175-0.54c2.096,2.109,6.075,6.561,6.283,8.898
		c-0.848,0.273-1.639,0.671-2.354,1.171C32.146,16.783,31.321,14.051,28.312,10.249z M37.172,30.394
		c-2.455,0-4.452-1.997-4.452-4.454c0-2.456,1.997-4.453,4.452-4.453c2.458,0,4.455,1.998,4.455,4.453
		C41.627,28.397,39.63,30.394,37.172,30.394z M41.171,21.609c-1.053-0.972-2.457-1.567-3.999-1.567
		c-3.252,0-5.897,2.646-5.897,5.898c0,0.017,0.003,0.032,0.003,0.049h-1.53c0-0.017,0-0.032,0-0.049
		c0-4.096,3.331-7.427,7.425-7.427c1.965,0,3.824,0.769,5.208,2.131L41.171,21.609z"/>
</g>
</svg>
