<?xml version="1.0" encoding="utf-8"?>
<!-- Generator: Adobe Illustrator 16.0.0, SVG Export Plug-In . SVG Version: 6.00 Build 0)  -->
<!DOCTYPE svg PUBLIC "-//W3C//DTD SVG 1.1//EN" "http://www.w3.org/Graphics/SVG/1.1/DTD/svg11.dtd">
<svg version="1.1" id="Layer_1" xmlns="http://www.w3.org/2000/svg" xmlns:xlink="http://www.w3.org/1999/xlink" x="0px" y="0px"
	 width="28.642px" height="28.626px" viewBox="0 0 28.642 28.626" enable-background="new 0 0 28.642 28.626" xml:space="preserve">
<g>
	<g>
		<path fill="#35424B" d="M27.498,8.738c-1.51-3.52-4.076-6.08-7.626-7.595C18.098,0.387,16.238,0,14.297,0S10.51,0.383,8.738,1.143
			c-3.521,1.51-6.098,4.069-7.611,7.595C0.369,10.505,0,12.355,0,14.297c0,1.942,0.369,3.808,1.127,5.575
			c1.514,3.527,4.091,6.101,7.611,7.611c1.773,0.76,3.617,1.143,5.559,1.143s3.801-0.387,5.575-1.143
			c3.55-1.514,6.115-4.09,7.626-7.611c0.761-1.772,1.144-3.633,1.144-5.575C28.642,12.355,28.259,10.511,27.498,8.738z
			 M25.212,20.624c-1.124,1.928-2.664,3.458-4.604,4.588c-1.928,1.125-4.04,1.691-6.312,1.691c-1.707,0-3.336-0.329-4.886-1.002
			c-1.551-0.673-2.889-1.558-4.008-2.677c-1.12-1.12-2.012-2.472-2.679-4.025c-0.664-1.547-0.986-3.194-0.986-4.902
			c0-2.271,0.558-4.372,1.676-6.295c1.123-1.93,2.663-3.46,4.589-4.588c1.925-1.127,4.023-1.691,6.294-1.691
			c2.271,0,4.384,0.567,6.311,1.691c1.94,1.13,3.478,2.662,4.604,4.588s1.691,4.024,1.691,6.295
			C26.903,16.568,26.343,18.684,25.212,20.624z"/>
		<path fill="#35424B" d="M15.205,14.172V6.06c0-0.485-0.422-0.877-0.908-0.877c-0.453,0-0.861,0.392-0.861,0.877v8.237
			c0,0.016,0.031,0.079,0.031,0.125c-0.031,0.282,0.048,0.517,0.234,0.705l4.683,4.682c0.313,0.313,0.894,0.313,1.206,0
			c0.361-0.36,0.337-0.883,0-1.222L15.205,14.172z"/>
	</g>
</g>
</svg>
