<?xml version="1.0" encoding="iso-8859-1"?>
<!-- Generator: Adobe Illustrator 22.0.0, SVG Export Plug-In . SVG Version: 6.00 Build 0)  -->
<svg version="1.1" id="Layer_1" xmlns="http://www.w3.org/2000/svg" xmlns:xlink="http://www.w3.org/1999/xlink" x="0px" y="0px"
	 viewBox="0 0 153 153" style="enable-background:new 0 0 153 153;" xml:space="preserve">
<g>
	<g>
		<path style="fill:#24C9FC;" d="M76.5,153C34.317,153,0,118.683,0,76.5C0,34.318,34.317,0,76.5,0S153,34.318,153,76.5
			C153,118.683,118.683,153,76.5,153z M76.5,3C35.972,3,3,35.972,3,76.5C3,117.028,35.972,150,76.5,150S150,117.028,150,76.5
			C150,35.972,117.028,3,76.5,3z"/>
	</g>
	<g>
		<g>
			<path style="fill:#24C9FC;" d="M76.945,67.927c-3.7,0-6.712,3.012-6.712,6.712s3.012,6.711,6.712,6.711s6.711-3.011,6.711-6.711
				S80.645,67.927,76.945,67.927z M76.945,78.693c-2.236,0-4.055-1.818-4.055-4.054s1.819-4.055,4.055-4.055
				c2.236,0,4.054,1.819,4.054,4.055S79.181,78.693,76.945,78.693z"/>
		</g>
		<g>
			<path style="fill:#24C9FC;" d="M106.874,93.019l3.869-34.149c0.372-3.496-2.168-6.68-5.662-7.095L59.157,46.56
				c-1.697-0.238-3.398,0.253-4.694,1.349c-1.303,1.011-2.143,2.517-2.317,4.141l-0.879,7.213h-2.921
				c-3.376,0-6.123,2.973-6.123,6.628v34.402c-0.087,3.338,2.549,6.117,5.877,6.205c0.084,0.003,0.163,0.002,0.242,0.002h46.182
				c3.638,0,6.712-2.843,6.712-6.207v-1.638l0.287-0.055c1.107-0.213,2.136-0.647,3.061-1.289
				C105.857,96.237,106.68,94.706,106.874,93.019z M98.579,100.293c0,2.123-2.097,3.55-4.055,3.55H48.346
				c-0.034,0.001-0.067,0.002-0.101,0.002c-0.857,0-1.676-0.325-2.309-0.922c-0.657-0.62-1.034-1.458-1.059-2.362
				c-0.004-0.096-0.002-0.193,0.003-0.29V93.89l13.182-9.696c1.703-1.307,4.088-1.194,5.667,0.28l9.16,8.068
				c1.319,1.108,3.003,1.735,4.735,1.763c1.366-0.005,2.687-0.345,3.849-1.043l17.107-9.899V100.293z M98.579,80.226L80.066,91.011
				c-0.731,0.434-1.548,0.646-2.362,0.647c-1.077,0-2.148-0.374-3.008-1.105l-9.258-8.163c-2.538-2.182-6.196-2.316-8.892-0.318
				l-11.668,8.486V65.891c0-1.91,1.325-3.971,3.466-3.971h46.179c2.179,0.09,3.916,1.787,4.055,3.949V80.226z M102.901,95.189
				c-0.185,0.19-0.504,0.334-0.76,0.451c-0.101,0.045-0.238,0.109-0.275,0.137c0.02-0.016,0.077-0.086,0.077-0.194h-0.707V65.891
				c-0.126-3.628-3.079-6.545-6.72-6.628H53.921l0.802-6.955c0.182-0.95,0.671-1.797,1.381-2.414
				c0.834-0.579,1.815-0.84,2.785-0.758l45.852,5.3c2.035,0.194,3.537,2.012,3.344,4.053l-0.004,0.04l-3.953,34.151
				C104.139,93.624,103.679,94.579,102.901,95.189z"/>
		</g>
	</g>
</g>
<g>
</g>
<g>
</g>
<g>
</g>
<g>
</g>
<g>
</g>
<g>
</g>
<g>
</g>
<g>
</g>
<g>
</g>
<g>
</g>
<g>
</g>
<g>
</g>
<g>
</g>
<g>
</g>
<g>
</g>
</svg>
