<?xml version="1.0" encoding="utf-8"?>
<!-- Generator: Adobe Illustrator 16.0.0, SVG Export Plug-In . SVG Version: 6.00 Build 0)  -->
<!DOCTYPE svg PUBLIC "-//W3C//DTD SVG 1.1//EN" "http://www.w3.org/Graphics/SVG/1.1/DTD/svg11.dtd">
<svg version="1.1" id="Layer_1" xmlns="http://www.w3.org/2000/svg" xmlns:xlink="http://www.w3.org/1999/xlink" x="0px" y="0px"
	 width="54.066px" height="49.604px" viewBox="0 0 54.066 49.604" enable-background="new 0 0 54.066 49.604" xml:space="preserve">
<g>
	<g>
		<g>
			<path fill="#FF3333" d="M27.033,49.604l-1.672-1.081c-4.371-2.825-10.664-7.33-15.822-12.75C3.21,29.121,0,22.599,0,16.387
				C0,7.351,7.352,0,16.387,0c2.621,0,5.126,0.601,7.447,1.787c1.146,0.586,2.219,1.305,3.199,2.145
				c0.98-0.84,2.053-1.559,3.199-2.145C32.553,0.601,35.059,0,37.68,0c9.035,0,16.387,7.351,16.387,16.387
				c0,6.212-3.21,12.735-9.54,19.388c-5.157,5.42-11.45,9.925-15.822,12.75L27.033,49.604z"/>
		</g>
	</g>
</g>
</svg>
