<?xml version="1.0" encoding="UTF-8"?>
<!DOCTYPE svg PUBLIC "-//W3C//DTD SVG 1.1//EN" "http://www.w3.org/Graphics/SVG/1.1/DTD/svg11.dtd">
<svg xmlns="http://www.w3.org/2000/svg" version="1.1" width="76px" height="99px" style="shape-rendering:geometricPrecision; text-rendering:geometricPrecision; image-rendering:optimizeQuality; fill-rule:evenodd; clip-rule:evenodd" xmlns:xlink="http://www.w3.org/1999/xlink">
<g><path style="opacity:0.968" fill="#f2ab33" d="M 33.5,-0.5 C 36.1667,-0.5 38.8333,-0.5 41.5,-0.5C 60.0924,2.4615 71.4257,13.1282 75.5,31.5C 75.5,35.5 75.5,39.5 75.5,43.5C 74.2312,49.0598 72.0646,54.3931 69,59.5C 58.6187,72.3755 48.452,85.3755 38.5,98.5C 37.8333,98.5 37.1667,98.5 36.5,98.5C 26.0088,84.8633 15.5088,71.1967 5,57.5C 2.38614,52.6604 0.552802,47.6604 -0.5,42.5C -0.5,39.1667 -0.5,35.8333 -0.5,32.5C 3.62081,14.0456 14.9541,3.04557 33.5,-0.5 Z"/></g>
<g><path style="opacity:1" fill="#fefefc" d="M 52.5,27.5 C 42.5,27.5 32.5,27.5 22.5,27.5C 23.1175,25.7708 24.1175,24.2708 25.5,23C 33.8533,22.1683 42.1866,22.3349 50.5,23.5C 51.1799,24.8599 51.8466,26.1932 52.5,27.5 Z"/></g>
<g><path style="opacity:1" fill="#f4c065" d="M 22.5,27.5 C 32.5,27.5 42.5,27.5 52.5,27.5C 52.5,28.1667 52.5,28.8333 52.5,29.5C 42.5,29.5 32.5,29.5 22.5,29.5C 22.5,28.8333 22.5,28.1667 22.5,27.5 Z"/></g>
<g><path style="opacity:1" fill="#fefaf4" d="M 22.5,29.5 C 32.5,29.5 42.5,29.5 52.5,29.5C 52.2402,31.595 51.0736,32.9283 49,33.5C 41.4775,33.4279 33.9775,33.4279 26.5,33.5C 24.1517,33.1517 22.8184,31.8184 22.5,29.5 Z"/></g>
<g><path style="opacity:1" fill="#fefcf8" d="M 32.5,34.5 C 32.5,38.1667 32.5,41.8333 32.5,45.5C 29.9407,45.1984 27.6074,45.5318 25.5,46.5C 24.5166,42.7016 24.1832,38.7016 24.5,34.5C 27.1667,34.5 29.8333,34.5 32.5,34.5 Z"/></g>
<g><path style="opacity:1" fill="#fef8ee" d="M 34.5,34.5 C 40.1667,34.5 45.8333,34.5 51.5,34.5C 51.5,38.5 51.5,42.5 51.5,46.5C 45.8333,46.5 40.1667,46.5 34.5,46.5C 34.5,42.5 34.5,38.5 34.5,34.5 Z"/></g>
<g><path style="opacity:1" fill="#f4b753" d="M 41.5,37.5 C 42.8333,37.5 44.1667,37.5 45.5,37.5C 45.9803,42.0168 43.9803,44.3502 39.5,44.5C 39.1658,41.812 39.8325,39.4786 41.5,37.5 Z"/></g>
<g><path style="opacity:1" fill="#fef3e3" d="M 42.5,38.5 C 44.8379,39.6484 44.6712,40.9817 42,42.5C 41.5,42.1667 41,41.8333 40.5,41.5C 41.1925,40.4822 41.8592,39.4822 42.5,38.5 Z"/></g>
<g><path style="opacity:1" fill="#fbe1b7" d="M 32.5,34.5 C 33.4834,38.2984 33.8168,42.2984 33.5,46.5C 30.8333,46.5 28.1667,46.5 25.5,46.5C 27.6074,45.5318 29.9407,45.1984 32.5,45.5C 32.5,41.8333 32.5,38.1667 32.5,34.5 Z"/></g>
<g><path style="opacity:1" fill="#fefaf4" d="M 23.5,47.5 C 32.8393,47.3335 42.1726,47.5002 51.5,48C 52.3802,49.3561 52.7135,50.8561 52.5,52.5C 42.5,52.5 32.5,52.5 22.5,52.5C 22.366,50.7085 22.6993,49.0418 23.5,47.5 Z"/></g>
</svg>
