<?xml version="1.0" encoding="iso-8859-1"?><!-- Generator: Adobe Illustrator 22.0.0, SVG Export Plug-In . SVG Version: 6.00 Build 0)  -->
<svg version="1.1" id="Layer_1" xmlns="http://www.w3.org/2000/svg"  x="0px" y="0px"
	 viewBox="0 0 23.378 26.946" style="enable-background:new 0 0 23.378 26.946;" xml:space="preserve">
<g>
	<g>
		<g>
			<g>
				<g>
					<path style="fill:#35424B;" d="M22.186,24.485H1.191c-0.427,0-0.825-0.232-1.036-0.605c-0.211-0.373-0.206-0.833,0.014-1.201
						l1.898-3.163c0.815-1.36,1.246-2.917,1.246-4.503v-2.77c0-3.51,2.249-6.68,5.525-7.871V2.85c0-1.571,1.278-2.85,2.85-2.85
						c1.572,0,2.85,1.279,2.85,2.85v1.521c3.276,1.191,5.525,4.361,5.525,7.871v2.77c0,1.587,0.432,3.145,1.248,4.503l1.895,3.162
						c0.223,0.369,0.229,0.831,0.015,1.204C23.01,24.254,22.613,24.485,22.186,24.485z M22.111,23.338
						C22.111,23.338,22.111,23.338,22.111,23.338L22.111,23.338z M1.346,23.205h20.685l-1.817-3.03
						c-0.936-1.557-1.431-3.343-1.431-5.162v-2.77c0-3.11-2.084-5.904-5.068-6.796L13.258,5.31V2.85c0-0.866-0.705-1.57-1.57-1.57
						c-0.865,0-1.57,0.704-1.57,1.57v2.46L9.662,5.447c-2.985,0.892-5.069,3.686-5.069,6.796v2.77c0,1.817-0.494,3.602-1.428,5.161
						L1.346,23.205z"/>
				</g>
			</g>
		</g>
		<g>
			<g>
				<g>
					<path style="fill:#35424B;" d="M11.688,26.946c-1.716,0-3.308-1.01-4.056-2.574l-0.439-0.916h8.991l-0.439,0.916
						C14.997,25.936,13.404,26.946,11.688,26.946z M9.433,24.736c0.591,0.589,1.391,0.93,2.255,0.93c0.864,0,1.664-0.341,2.255-0.93
						H9.433z"/>
				</g>
			</g>
		</g>
	</g>
</g>
<g>
</g>
<g>
</g>
<g>
</g>
<g>
</g>
<g>
</g>
<g>
</g>
<g>
</g>
<g>
</g>
<g>
</g>
<g>
</g>
<g>
</g>
<g>
</g>
<g>
</g>
<g>
</g>
<g>
</g>
</svg>
