<?xml version="1.0" encoding="utf-8"?>
<!-- Generator: Adobe Illustrator 16.0.0, SVG Export Plug-In . SVG Version: 6.00 Build 0)  -->
<svg version="1.1" id="Layer_1" xmlns="http://www.w3.org/2000/svg" xmlns:xlink="http://www.w3.org/1999/xlink" x="0px" y="0px"
	 width="53.308px" height="54.434px" viewBox="0 0 53.308 54.434" enable-background="new 0 0 53.308 54.434" xml:space="preserve">
<g>
	<path fill="none" stroke="#35424B" stroke-width="2.5" stroke-miterlimit="10" d="M24.194,22.05c0,1.447-1.174,2.62-2.621,2.62
		H9.782c-1.447,0-2.621-1.173-2.621-2.62V10.258c0-1.447,1.173-2.621,2.621-2.621h11.792c1.447,0,2.621,1.173,2.621,2.621V22.05z"/>
	<path fill="none" stroke="#35424B" stroke-width="2.5" stroke-miterlimit="10" d="M46.861,22.05c0,1.447-1.173,2.62-2.62,2.62
		H32.449c-1.447,0-2.62-1.173-2.62-2.62V10.258c0-1.447,1.173-2.621,2.62-2.621h11.792c1.447,0,2.62,1.173,2.62,2.621V22.05z"/>
	<path fill="none" stroke="#35424B" stroke-width="2.5" stroke-miterlimit="10" d="M24.194,43.887c0,1.447-1.174,2.62-2.621,2.62
		H9.782c-1.447,0-2.621-1.173-2.621-2.62V32.094c0-1.447,1.173-2.62,2.621-2.62h11.792c1.447,0,2.621,1.173,2.621,2.62V43.887z"/>
	<path fill="none" stroke="#35424B" stroke-width="2.5" stroke-miterlimit="10" d="M44.671,42.37c0,1.075-0.871,1.947-1.946,1.947
		h-8.759c-1.075,0-1.946-0.872-1.946-1.947v-8.758c0-1.075,0.871-1.947,1.946-1.947h8.759c1.075,0,1.946,0.872,1.946,1.947V42.37z"
		/>
	<g>
		<polyline fill="none" stroke="#35424B" stroke-width="2.5" stroke-linecap="round" stroke-miterlimit="10" points="1.25,8.539 
			1.25,1.25 9.062,1.25 		"/>
		<polyline fill="none" stroke="#35424B" stroke-width="2.5" stroke-linecap="round" stroke-miterlimit="10" points="8.538,53.184 
			1.25,53.184 1.25,45.373 		"/>
	</g>
	<g>
		<polyline fill="none" stroke="#35424B" stroke-width="2.5" stroke-linecap="round" stroke-miterlimit="10" points="52.058,8.539 
			52.058,1.25 44.246,1.25 		"/>
		<polyline fill="none" stroke="#35424B" stroke-width="2.5" stroke-linecap="round" stroke-miterlimit="10" points="44.769,53.184 
			52.058,53.184 52.058,45.373 		"/>
	</g>
</g>
</svg>
