<?xml version="1.0" encoding="utf-8"?>
<!-- Generator: Adobe Illustrator 16.0.0, SVG Export Plug-In . SVG Version: 6.00 Build 0)  -->
<!DOCTYPE svg PUBLIC "-//W3C//DTD SVG 1.1//EN" "http://www.w3.org/Graphics/SVG/1.1/DTD/svg11.dtd">
<svg version="1.1" id="Layer_1" xmlns="http://www.w3.org/2000/svg" xmlns:xlink="http://www.w3.org/1999/xlink" x="0px" y="0px"
	 width="52.522px" height="55.717px" viewBox="0 0 52.522 55.717" enable-background="new 0 0 52.522 55.717" xml:space="preserve">
<g>
	<path fill="#35424B" d="M42.55,35.794c-3.203,0-6.062,1.527-7.89,3.889l-15.306-8.551c0.359-1.028,0.554-2.139,0.554-3.285
		c0-1.156-0.194-2.256-0.566-3.297l15.296-8.537c1.815,2.371,4.685,3.909,7.901,3.909c5.483,0,9.961-4.466,9.961-9.961
		S48.034,0,42.539,0s-9.961,4.466-9.961,9.961c0,1.157,0.196,2.268,0.566,3.298l-15.282,8.538c-1.816-2.384-4.686-3.91-7.901-3.91
		C4.477,17.887,0,22.352,0,27.847c0,5.496,4.477,9.961,9.972,9.961c3.216,0,6.086-1.538,7.914-3.922l15.295,8.55
		c-0.371,1.04-0.58,2.163-0.58,3.32c0,5.483,4.466,9.961,9.962,9.961c5.495,0,9.96-4.466,9.96-9.961S48.046,35.794,42.55,35.794z
		 M42.55,3.136c3.772,0,6.838,3.065,6.838,6.837s-3.065,6.837-6.838,6.837c-3.771,0-6.836-3.065-6.836-6.837
		S38.789,3.136,42.55,3.136z M9.972,34.685c-3.771,0-6.838-3.066-6.838-6.838S6.2,21.01,9.972,21.01s6.838,3.065,6.838,6.837
		S13.731,34.685,9.972,34.685z M42.55,52.582c-3.771,0-6.836-3.066-6.836-6.838c0-3.772,3.065-6.837,6.836-6.837
		c3.772,0,6.838,3.064,6.838,6.837C49.388,49.516,46.322,52.582,42.55,52.582z"/>
</g>
</svg>
