<?xml version="1.0" encoding="iso-8859-1"?><!-- Generator: Adobe Illustrator 22.0.0, SVG Export Plug-In . SVG Version: 6.00 Build 0)  -->
<svg version="1.1" id="Layer_1" xmlns="http://www.w3.org/2000/svg"  x="0px" y="0px"
	 viewBox="0 0 24.778 24.778" style="enable-background:new 0 0 24.778 24.778;" xml:space="preserve">
<g>
	<g>
		<path style="fill:#35424B;" d="M13.726,24.778h-2.673c-1.069,0-1.939-0.869-1.939-1.938v-1.594l-0.683-0.264l-1.114,1.114
			c-0.744,0.74-1.998,0.74-2.74,0.002l-1.893-1.895c-0.365-0.365-0.566-0.853-0.566-1.371s0.201-1.006,0.567-1.37l1.127-1.128
			l-0.275-0.67H1.938C0.869,15.665,0,14.796,0,13.728v-2.675c0-1.069,0.869-1.939,1.938-1.939h1.6l0.272-0.671L2.684,7.315
			c-0.365-0.363-0.566-0.85-0.566-1.37c0-0.52,0.202-1.007,0.568-1.372l1.889-1.892c0.744-0.739,1.999-0.74,2.739-0.002l1.128,1.128
			l0.672-0.275V1.939C9.113,0.87,9.983,0,11.053,0h2.673c1.07,0,1.941,0.87,1.941,1.939v1.595l0.68,0.263l1.115-1.115
			c0.747-0.735,2-0.734,2.737-0.006l1.896,1.9c0.364,0.365,0.564,0.852,0.564,1.37c0,0.52-0.202,1.007-0.568,1.372l-1.125,1.127
			l0.277,0.669h1.599c1.067,0,1.937,0.87,1.937,1.939v2.675c0,1.068-0.869,1.938-1.937,1.938h-1.6l-0.274,0.671l1.125,1.128
			c0.365,0.363,0.566,0.851,0.566,1.369s-0.201,1.006-0.566,1.371l-1.887,1.893c-0.749,0.734-2.001,0.736-2.738,0.006l-1.132-1.132
			l-0.669,0.273v1.596C15.667,23.909,14.796,24.778,13.726,24.778z M8.423,19.943l0.18,0.033l0.981,0.379
			c0.279,0.097,0.529,0.445,0.529,0.755v1.729c0,0.518,0.422,0.938,0.939,0.938h2.673c0.52,0,0.941-0.421,0.941-0.938V21.11
			c0-0.317,0.256-0.658,0.582-0.775l0.999-0.41l0.105,0.019c0.228,0,0.455,0.086,0.593,0.224l1.227,1.227
			c0.349,0.345,0.971,0.345,1.328-0.007l1.884-1.89c0.178-0.177,0.274-0.412,0.274-0.664c0-0.251-0.097-0.486-0.272-0.661
			l-1.222-1.225c-0.225-0.222-0.284-0.646-0.133-0.964l0.328-0.803c0.089-0.266,0.438-0.516,0.751-0.516h1.73
			c0.517,0,0.937-0.421,0.937-0.938v-2.675c0-0.518-0.42-0.939-0.937-0.939h-1.73c-0.319,0-0.661-0.257-0.777-0.584l-0.333-0.807
			c-0.124-0.239-0.055-0.673,0.164-0.892l1.22-1.221c0.177-0.177,0.274-0.412,0.274-0.664s-0.097-0.488-0.272-0.664l-1.893-1.897
			c-0.351-0.345-0.972-0.344-1.328,0.007l-1.222,1.221c-0.137,0.137-0.363,0.222-0.592,0.222l-0.181-0.034l-0.979-0.378
			c-0.276-0.093-0.526-0.442-0.526-0.755V1.939C14.667,1.421,14.245,1,13.726,1h-2.673c-0.518,0-0.939,0.421-0.939,0.939v1.729
			c0,0.321-0.26,0.663-0.592,0.777L8.519,4.853L8.424,4.835c-0.228,0-0.454-0.085-0.592-0.223L6.607,3.388
			C6.26,3.042,5.628,3.044,5.28,3.39L3.392,5.282C3.215,5.458,3.117,5.694,3.117,5.946S3.214,6.433,3.39,6.607L4.611,7.83
			c0.226,0.225,0.285,0.65,0.133,0.969L4.421,9.594c-0.086,0.262-0.442,0.52-0.752,0.52h-1.73C1.421,10.113,1,10.535,1,11.053v2.675
			c0,0.517,0.421,0.938,0.938,0.938h1.73c0.316,0,0.665,0.263,0.777,0.585l0.331,0.808c0.125,0.244,0.058,0.668-0.164,0.89
			l-1.223,1.224c-0.177,0.176-0.273,0.411-0.273,0.662c0,0.252,0.097,0.487,0.273,0.664l1.892,1.894
			c0.347,0.345,0.979,0.345,1.328-0.002l1.225-1.225C7.971,20.028,8.196,19.943,8.423,19.943z M9.217,21.286
			c0.008,0.003,0.016,0.006,0.023,0.009L9.217,21.286z M15.615,21.265l-0.007,0.003C15.61,21.268,15.612,21.267,15.615,21.265z
			 M3.847,16.42c0.005,0.017,0.012,0.034,0.021,0.053L3.847,16.42z M20.947,16.387l-0.001,0.002l0,0
			C20.946,16.389,20.946,16.388,20.947,16.387z M20.869,16.237l0.007,0.007C20.874,16.242,20.872,16.24,20.869,16.237z
			 M3.511,15.604c0.001,0.003,0.003,0.008,0.006,0.013L3.511,15.604z M21.297,15.529l-0.018,0.044
			C21.285,15.561,21.292,15.546,21.297,15.529z M3.502,9.203C3.495,9.216,3.489,9.231,3.483,9.248L3.502,9.203z M21.264,9.163
			l0.003,0.008C21.267,9.17,21.266,9.167,21.264,9.163z M3.902,8.535c0.001,0.001,0.002,0.002,0.003,0.003L3.902,8.535z M3.83,8.394
			c0,0-0.001,0.001-0.001,0.002L3.83,8.394C3.83,8.394,3.83,8.394,3.83,8.394z M20.908,8.306l0.022,0.053
			C20.926,8.343,20.918,8.325,20.908,8.306z M9.167,3.511c-0.001,0-0.002,0-0.005,0.002L9.167,3.511L9.167,3.511z M15.534,3.483
			l0.029,0.011C15.555,3.49,15.545,3.486,15.534,3.483z M12.388,17.123c-2.607,0-4.729-2.123-4.729-4.733s2.122-4.734,4.729-4.734
			c2.61,0,4.734,2.124,4.734,4.734S14.998,17.123,12.388,17.123z M12.388,8.655c-2.057,0-3.729,1.675-3.729,3.734
			c0,2.059,1.673,3.733,3.729,3.733c2.06,0,3.734-1.675,3.734-3.733C16.122,10.33,14.447,8.655,12.388,8.655z"/>
	</g>
</g>
<g>
</g>
<g>
</g>
<g>
</g>
<g>
</g>
<g>
</g>
<g>
</g>
<g>
</g>
<g>
</g>
<g>
</g>
<g>
</g>
<g>
</g>
<g>
</g>
<g>
</g>
<g>
</g>
<g>
</g>
</svg>
