<?xml version="1.0" encoding="utf-8"?>
<!-- Generator: Adobe Illustrator 16.0.0, SVG Export Plug-In . SVG Version: 6.00 Build 0)  -->
<!DOCTYPE svg PUBLIC "-//W3C//DTD SVG 1.1//EN" "http://www.w3.org/Graphics/SVG/1.1/DTD/svg11.dtd">
<svg version="1.1" id="Layer_1" xmlns="http://www.w3.org/2000/svg" xmlns:xlink="http://www.w3.org/1999/xlink" x="0px" y="0px"
	 width="50px" height="50px" viewBox="0 0 50 50" enable-background="new 0 0 50 50" xml:space="preserve">
<circle fill="#39B54A" cx="25" cy="25" r="25"/>
<g>
	<path fill="#FFFFFF" d="M24.584,22.965h1.662v0.831h-1.662V22.965z"/>
	<path fill="#FFFFFF" d="M29.568,22.965h1.66v0.831h-1.66V22.965z"/>
	<path fill="#FFFFFF" d="M29.568,26.287h1.66v0.831h-1.66V26.287z"/>
	<path fill="#FFFFFF" d="M24.584,26.287h1.662v0.831h-1.662V26.287z"/>
	<path fill="#FFFFFF" d="M24.584,29.609h1.662v0.831h-1.662V29.609z"/>
	<path fill="#FFFFFF" d="M29.568,29.609h1.66v0.831h-1.66V29.609z"/>
	<path fill="#FFFFFF" d="M29.152,35.009h0.83v0.83h-0.83V35.009z"/>
	<path fill="#FFFFFF" d="M36.213,18.979L25,12.5l-11.212,6.479v10.216h0.831v-9.718L25,13.497l10.381,5.98v17.192h-4.152
		c0.209-0.249,0.332-0.539,0.375-0.83h1.701c0.707,0,1.246-0.54,1.246-1.246v-2.076c0-0.706-0.539-1.246-1.246-1.246V22.55
		c0-0.665-0.539-1.246-1.203-1.246h-8.389c-0.665,0-1.204,0.581-1.204,1.246v8.721h-0.831v-7.06h-0.831v0.831h-1.994
		c-0.457,0-0.872,0.249-1.08,0.664l-2.99,5.606c-0.125,0.166-0.166,0.373-0.166,0.581v2.699c0,0.706,0.54,1.246,1.246,1.246h0.872
		c0.083,0.291,0.208,0.581,0.374,0.83h-4.568V37.5h24.917v-0.831h-1.246V18.979z M20.805,35.839h6.728
		c0.082,0.291,0.207,0.581,0.373,0.83h-7.475C20.598,36.42,20.722,36.13,20.805,35.839z M28.322,35.424
		c0-0.706,0.539-1.246,1.246-1.246c0.705,0,1.246,0.54,1.246,1.246s-0.541,1.245-1.246,1.245
		C28.861,36.669,28.322,36.13,28.322,35.424z M28.322,31.271v-2.491h4.152v2.491H28.322z M28.322,25.457h4.152v2.491h-4.152V25.457z
		 M27.492,27.948h-4.153v-2.491h4.153V27.948z M32.475,22.55v2.077h-4.152v-2.492h3.779C32.309,22.135,32.475,22.342,32.475,22.55z
		 M23.712,22.135h3.78v2.492h-4.153V22.55C23.339,22.342,23.505,22.135,23.712,22.135z M23.339,28.779h4.153v2.491h-4.153V28.779z
		 M18.48,26.08c0.083-0.125,0.208-0.208,0.374-0.208h1.994v5.398h-5.108L18.48,26.08z M15.448,34.593v-2.491h17.856
		c0.25,0,0.416,0.166,0.416,0.415v2.076c0,0.249-0.166,0.416-0.416,0.416h-1.701c-0.25-1.122-1.33-1.869-2.451-1.62
		c-0.83,0.166-1.453,0.789-1.619,1.62h-6.728c-0.249-1.122-1.329-1.869-2.45-1.62c-0.831,0.166-1.454,0.789-1.62,1.62h-0.872
		C15.614,35.009,15.448,34.842,15.448,34.593z M17.525,35.424c0-0.706,0.54-1.246,1.246-1.246s1.246,0.54,1.246,1.246
		s-0.54,1.245-1.246,1.245S17.525,36.13,17.525,35.424z"/>
	<path fill="#FFFFFF" d="M18.355,35.009h0.831v0.83h-0.831V35.009z"/>
	<path fill="#FFFFFF" d="M27.492,16.487L25,14.992l-2.491,1.495v3.571h4.984V16.487z M23.339,16.985l1.246-0.748v2.99h-1.246V16.985
		z M26.66,19.228h-1.246v-2.99l1.246,0.748V19.228z"/>
</g>
</svg>
