<?xml version="1.0" encoding="utf-8"?>
<!-- Generator: Adobe Illustrator 24.1.3, SVG Export Plug-In . SVG Version: 6.00 Build 0)  -->
<svg version="1.1" id="Layer_1" xmlns="http://www.w3.org/2000/svg" xmlns:xlink="http://www.w3.org/1999/xlink" x="0px" y="0px"
	 viewBox="0 0 11.2 12.5" style="enable-background:new 0 0 11.2 12.5;" xml:space="preserve">
<style type="text/css">
	.st0{fill:#FFFFFF;}
</style>
<g>
</g>
<g>
	<g>
		<g>
			<path class="st0" d="M10.4,12.5H1.7c-0.4,0-0.8-0.4-0.8-0.8v-1.3H0.8C0.4,10.4,0,10,0,9.6c0-0.4,0.4-0.8,0.8-0.8h0.1V8.1H0.8
				C0.4,8.1,0,7.8,0,7.3s0.4-0.8,0.8-0.8h0.1V5.9H0.8C0.4,5.9,0,5.5,0,5.1c0-0.4,0.4-0.8,0.8-0.8h0.1V3.6H0.8C0.4,3.6,0,3.3,0,2.8
				C0,2.4,0.4,2,0.8,2h0.1V0.8C0.9,0.4,1.2,0,1.7,0h8.7c0.4,0,0.8,0.4,0.8,0.8v10.9C11.2,12.1,10.8,12.5,10.4,12.5z M0.9,9.4
				c-0.1,0-0.2,0.1-0.2,0.2c0,0.1,0.1,0.2,0.2,0.2h0.7v1.9c0,0.1,0.1,0.2,0.2,0.2h8.5c0.1,0,0.2-0.1,0.2-0.2V0.9
				c0-0.1-0.1-0.2-0.2-0.2H1.7c-0.1,0-0.2,0.1-0.2,0.2v1.8H0.9c-0.1,0-0.2,0.1-0.2,0.2c0,0.1,0.1,0.2,0.2,0.2h0.7v1.8H0.9
				C0.7,4.9,0.7,5,0.7,5.1c0,0.1,0.1,0.2,0.2,0.2h0.7v1.8H0.9c-0.1,0-0.2,0.1-0.2,0.2s0.1,0.2,0.2,0.2h0.7v1.8H0.9z"/>
		</g>
	</g>
</g>
</svg>
