<?xml version="1.0" encoding="utf-8"?>
<!-- Generator: Adobe Illustrator 24.1.3, SVG Export Plug-In . SVG Version: 6.00 Build 0)  -->
<svg version="1.1" id="Layer_1" xmlns="http://www.w3.org/2000/svg" xmlns:xlink="http://www.w3.org/1999/xlink" x="0px" y="0px"
	 viewBox="0 0 27.8 25.5" style="enable-background:new 0 0 27.8 25.5;" xml:space="preserve">
<style type="text/css">
	.st0{fill:#FFFFFF;}
</style>
<g>
	<g>
		<g>
			<g>
				<path class="st0" d="M13.9,25.5l-0.86-0.56c-2.25-1.45-5.48-3.77-8.14-6.56C1.65,14.97,0,11.62,0,8.43C0,3.78,3.78,0,8.43,0
					c1.35,0,2.64,0.31,3.83,0.92c0.59,0.3,1.14,0.67,1.64,1.1c0.5-0.43,1.06-0.8,1.64-1.1C16.74,0.31,18.03,0,19.37,0
					c4.65,0,8.43,3.78,8.43,8.43c0,3.19-1.65,6.55-4.91,9.97c-2.65,2.79-5.89,5.1-8.13,6.56L13.9,25.5z"/>
			</g>
		</g>
	</g>
</g>
</svg>
