<?xml version="1.0" encoding="utf-8"?>
<!-- Generator: Adobe Illustrator 16.0.0, SVG Export Plug-In . SVG Version: 6.00 Build 0)  -->
<!DOCTYPE svg PUBLIC "-//W3C//DTD SVG 1.1//EN" "http://www.w3.org/Graphics/SVG/1.1/DTD/svg11.dtd">
<svg version="1.1" id="Layer_1" xmlns="http://www.w3.org/2000/svg" xmlns:xlink="http://www.w3.org/1999/xlink" x="0px" y="0px"
	 width="48.023px" height="60px" viewBox="0 0 48.023 60" enable-background="new 0 0 48.023 60" xml:space="preserve">
<g>
	<path fill="#1D39CF" d="M48.012,51.865l-3.436-38.688c-0.074-0.859-0.797-1.509-1.645-1.509h-7.066C35.766,5.215,30.49,0,24.012,0
		S12.258,5.215,12.16,11.669H5.092c-0.859,0-1.57,0.65-1.645,1.509L0.012,51.865C0.012,51.914,0,51.963,0,52.013
		C0,56.417,4.037,60,9.006,60h30.012c4.971,0,9.006-3.583,9.006-7.987C48.023,51.963,48.023,51.914,48.012,51.865z M24.012,3.313
		c4.65,0,8.441,3.73,8.541,8.356h-17.08C15.57,7.043,19.361,3.313,24.012,3.313z M39.018,56.687H9.006
		c-3.117,0-5.645-2.061-5.693-4.601l3.289-37.092h5.545v5.03c0,0.92,0.736,1.657,1.656,1.657s1.656-0.736,1.656-1.657v-5.03h17.094
		v5.03c0,0.92,0.734,1.657,1.656,1.657c0.92,0,1.656-0.736,1.656-1.657v-5.03h5.545l3.301,37.092
		C44.662,54.626,42.123,56.687,39.018,56.687z"/>
</g>
</svg>
