<?xml version="1.0" encoding="iso-8859-1"?><!-- Generator: Adobe Illustrator 22.0.0, SVG Export Plug-In . SVG Version: 6.00 Build 0)  -->
<svg version="1.1" id="Layer_1" xmlns="http://www.w3.org/2000/svg"  x="0px" y="0px"
	 viewBox="0 0 26.392 26.392" style="enable-background:new 0 0 26.392 26.392;" xml:space="preserve">
<path style="fill:#35424B;" d="M26.392,13.196C26.392,5.92,20.472,0,13.196,0S0,5.92,0,13.196c0,3.843,1.653,7.307,4.283,9.721
	l-0.013,0.011l0.428,0.361c0.028,0.024,0.058,0.043,0.086,0.066c0.227,0.189,0.463,0.367,0.703,0.541
	c0.078,0.056,0.155,0.112,0.235,0.167c0.256,0.176,0.519,0.344,0.788,0.503c0.059,0.035,0.118,0.068,0.177,0.102
	c0.294,0.168,0.594,0.325,0.902,0.47c0.022,0.011,0.045,0.02,0.068,0.031c1.002,0.466,2.072,0.808,3.191,1.01
	c0.029,0.005,0.059,0.011,0.088,0.016c0.347,0.06,0.699,0.108,1.054,0.14c0.043,0.004,0.086,0.006,0.13,0.01
	c0.354,0.029,0.712,0.048,1.075,0.048c0.359,0,0.714-0.019,1.066-0.047c0.045-0.004,0.089-0.006,0.134-0.01
	c0.353-0.032,0.701-0.079,1.045-0.138c0.03-0.005,0.06-0.011,0.09-0.016c1.102-0.198,2.157-0.532,3.146-0.986
	c0.036-0.017,0.073-0.033,0.11-0.05c0.296-0.139,0.585-0.29,0.869-0.449c0.07-0.04,0.14-0.08,0.21-0.121
	c0.258-0.152,0.512-0.311,0.759-0.48c0.089-0.06,0.176-0.124,0.263-0.188c0.211-0.151,0.417-0.308,0.619-0.472
	c0.045-0.036,0.093-0.067,0.136-0.104l0.439-0.366l-0.013-0.011C24.724,20.539,26.392,17.059,26.392,13.196z M0.96,13.196
	C0.96,6.449,6.449,0.96,13.196,0.96s12.236,5.489,12.236,12.236c0,3.636-1.595,6.905-4.121,9.148
	c-0.141-0.097-0.283-0.185-0.429-0.258l-4.063-2.031c-0.365-0.182-0.591-0.549-0.591-0.956v-1.419
	c0.094-0.116,0.194-0.248,0.296-0.392c0.526-0.743,0.948-1.569,1.255-2.458c0.608-0.289,1.001-0.895,1.001-1.578V11.55
	c0-0.416-0.153-0.82-0.426-1.137v-2.24c0.025-0.249,0.113-1.655-0.904-2.814c-0.884-1.01-2.316-1.521-4.255-1.521
	s-3.37,0.511-4.255,1.52C7.924,6.518,8.013,7.924,8.038,8.173v2.24c-0.273,0.317-0.426,0.721-0.426,1.137v1.701
	c0,0.528,0.237,1.021,0.643,1.354c0.389,1.523,1.189,2.675,1.484,3.066v1.389c0,0.392-0.214,0.752-0.558,0.94l-3.794,2.07
	c-0.121,0.066-0.241,0.143-0.361,0.229C2.532,20.054,0.96,16.805,0.96,13.196z M20.374,23.096c-0.168,0.122-0.339,0.24-0.512,0.353
	c-0.08,0.052-0.159,0.104-0.24,0.154c-0.226,0.14-0.457,0.274-0.692,0.398c-0.052,0.027-0.104,0.053-0.156,0.08
	c-0.54,0.277-1.099,0.515-1.674,0.708c-0.02,0.007-0.04,0.014-0.061,0.021c-0.301,0.1-0.606,0.189-0.914,0.265
	c-0.001,0-0.002,0-0.003,0c-0.311,0.077-0.626,0.141-0.943,0.193c-0.009,0.001-0.017,0.003-0.026,0.005
	c-0.298,0.049-0.598,0.084-0.9,0.11c-0.053,0.005-0.106,0.008-0.16,0.012c-0.298,0.022-0.598,0.037-0.898,0.037
	c-0.304,0-0.607-0.015-0.909-0.038c-0.052-0.004-0.105-0.007-0.156-0.012c-0.304-0.027-0.607-0.063-0.907-0.112
	c-0.014-0.003-0.027-0.005-0.04-0.007c-0.635-0.106-1.259-0.262-1.867-0.466c-0.019-0.006-0.038-0.013-0.057-0.019
	c-0.302-0.103-0.6-0.216-0.894-0.342c-0.002-0.001-0.004-0.002-0.006-0.003c-0.277-0.12-0.549-0.252-0.818-0.391
	c-0.035-0.018-0.07-0.036-0.105-0.054c-0.245-0.131-0.485-0.273-0.722-0.42c-0.07-0.044-0.14-0.089-0.209-0.134
	c-0.218-0.143-0.433-0.291-0.642-0.448c-0.022-0.016-0.042-0.034-0.064-0.05c0.015-0.009,0.031-0.017,0.046-0.026l3.794-2.07
	c0.653-0.356,1.058-1.039,1.058-1.782l-0.001-1.728l-0.11-0.133c-0.011-0.012-1.048-1.274-1.44-2.983l-0.044-0.19l-0.164-0.106
	c-0.231-0.149-0.369-0.399-0.369-0.668v-1.701c0-0.223,0.094-0.431,0.267-0.587l0.158-0.143V8.146L8.993,8.083
	C8.991,8.072,8.85,6.918,9.663,5.991c0.694-0.791,1.883-1.192,3.533-1.192c1.644,0,2.829,0.398,3.525,1.183
	c0.812,0.917,0.679,2.093,0.678,2.102l-0.004,2.736l0.158,0.143c0.172,0.155,0.267,0.364,0.267,0.587v1.701
	c0,0.342-0.233,0.653-0.567,0.756l-0.239,0.074l-0.077,0.237c-0.283,0.88-0.686,1.692-1.198,2.415
	c-0.126,0.177-0.248,0.335-0.353,0.455l-0.119,0.136v1.775c0,0.773,0.43,1.469,1.122,1.815l4.063,2.031
	c0.026,0.013,0.051,0.026,0.077,0.04C20.479,23.023,20.426,23.059,20.374,23.096z"/>
<g>
</g>
<g>
</g>
<g>
</g>
<g>
</g>
<g>
</g>
<g>
</g>
<g>
</g>
<g>
</g>
<g>
</g>
<g>
</g>
<g>
</g>
<g>
</g>
<g>
</g>
<g>
</g>
<g>
</g>
</svg>
