<svg xmlns="http://www.w3.org/2000/svg" width="512" height="512" viewBox="0 0 512 512">
  <g id="Group_8" data-name="Group 8" transform="translate(-306.5 -709.525)">
    <g id="Group_6" data-name="Group 6">
      <path id="Path_2" data-name="Path 2" d="M562.5,1221.525c-141.147,0-256-114.833-256-256,0-141.147,114.853-256,256-256,141.167,0,256,114.853,256,256C818.5,1106.692,703.667,1221.525,562.5,1221.525Z" fill="#e81c24"/>
    </g>
    <path id="Path_3" data-name="Path 3" d="M531.566,1059.716a19.806,19.806,0,0,1-14.139-5.929l-73.171-74.361a19.827,19.827,0,1,1,28.277-27.8l58.458,59.409,120.941-133.2a19.828,19.828,0,1,1,29.347,26.671L546.24,1053.231a19.832,19.832,0,0,1-14.277,6.5A2.772,2.772,0,0,0,531.566,1059.716Z" fill="#fff"/>
  </g>
</svg>
