<?xml version="1.0" encoding="utf-8"?>
<!-- Generator: Adobe Illustrator 24.1.2, SVG Export Plug-In . SVG Version: 6.00 Build 0)  -->
<svg version="1.1" id="Layer_1" xmlns="http://www.w3.org/2000/svg" xmlns:xlink="http://www.w3.org/1999/xlink" x="0px" y="0px"
	 viewBox="0 0 20.1 20" style="enable-background:new 0 0 20.1 20;" xml:space="preserve">
<style type="text/css">
	.st0{fill:#FFFFFF;}
</style>
<g>
	<path class="st0" d="M18.6,12.6c-0.3,0-0.5,0.2-0.5,0.5v4.4c0,0.8-0.7,1.5-1.5,1.5h-14C1.7,19,1,18.3,1,17.5v-13
		C1,3.6,1.7,3,2.5,2.9h4.4c0.3,0,0.5-0.2,0.5-0.5c0-0.3-0.2-0.5-0.5-0.5H2.5C1.1,1.9,0,3.1,0,4.5v13C0,18.9,1.1,20,2.5,20h14
		c1.4,0,2.5-1.1,2.5-2.5v-4.4C19.1,12.8,18.8,12.6,18.6,12.6z"/>
	<path class="st0" d="M18.9,0.7c-0.9-0.9-2.3-0.9-3.2,0L6.7,9.6C6.7,9.7,6.6,9.7,6.6,9.8l-1.2,4.2c0,0.2,0,0.4,0.1,0.5
		c0.1,0.1,0.3,0.2,0.5,0.1l4.2-1.2c0.1,0,0.2-0.1,0.2-0.1l8.9-8.9c0.9-0.9,0.9-2.3,0-3.2L18.9,0.7z M7.8,9.9l7.3-7.3L17.5,5
		l-7.3,7.3L7.8,9.9z M7.4,10.9l1.9,1.9l-2.6,0.7L7.4,10.9z M18.7,3.7l-0.5,0.5l-2.4-2.4l0.5-0.5c0.5-0.5,1.3-0.5,1.8,0L18.7,2
		C19.2,2.4,19.2,3.2,18.7,3.7z"/>
</g>
</svg>
