<?xml version="1.0" encoding="utf-8"?>
<!-- Generator: Adobe Illustrator 24.1.1, SVG Export Plug-In . SVG Version: 6.00 Build 0)  -->
<svg version="1.1" id="Layer_1" xmlns="http://www.w3.org/2000/svg" xmlns:xlink="http://www.w3.org/1999/xlink" x="0px" y="0px"
	 viewBox="0 0 208.9 69" style="enable-background:new 0 0 208.9 69;" xml:space="preserve">
<style type="text/css">
	.st0{fill:#FFFFFF;stroke:#EAEAEA;stroke-miterlimit:10;}
	.st1{clip-path:url(#SVGID_2_);fill:url(#SVGID_3_);}
	.st2{clip-path:url(#SVGID_2_);fill:url(#SVGID_4_);}
	.st3{clip-path:url(#SVGID_2_);fill:url(#SVGID_5_);}
	.st4{clip-path:url(#SVGID_2_);fill:url(#SVGID_6_);}
</style>
<g>
	<path class="st0" d="M208.4,59.3c0,5.1-4.1,9.2-9.2,9.2H9.7c-5.1,0-9.2-4.1-9.2-9.2V9.7c0-5.1,4.1-9.2,9.2-9.2h189.5
		c5.1,0,9.2,4.1,9.2,9.2V59.3z"/>
	<g id="PLAY_3_">
		<defs>
			<path id="SVGID_1_" d="M45.5,28.2l-9.4-5.4c0,0-17.1-9.9-18.1-10.4c-1-0.6-2-0.2-2,1c0,2,0,21,0,21s0,20.6,0,21.5
				c0,0.9,0.7,1.3,1.6,0.8C18.5,56.2,36.2,46,36.2,46l9.4-5.4c0,0,8-4.6,9-5.2c1.1-0.6,1-1.4,0.1-1.9C53.7,33,45.5,28.2,45.5,28.2z"
				/>
		</defs>
		<clipPath id="SVGID_2_">
			<use xlink:href="#SVGID_1_"  style="overflow:visible;"/>
		</clipPath>
		<linearGradient id="SVGID_3_" gradientUnits="userSpaceOnUse" x1="27.7021" y1="11.3788" x2="27.7021" y2="57.4279">
			<stop  offset="0" style="stop-color:#207AA8"/>
			<stop  offset="0.2775" style="stop-color:#4292AC"/>
			<stop  offset="0.7642" style="stop-color:#79B8B3"/>
			<stop  offset="1" style="stop-color:#8FC7B6"/>
		</linearGradient>
		<polygon class="st1" points="16.1,11.4 16.1,34.4 16.1,57.4 39.3,34.4 		"/>
		<linearGradient id="SVGID_4_" gradientUnits="userSpaceOnUse" x1="16.0928" y1="22.807" x2="45.5459" y2="22.807">
			<stop  offset="0" style="stop-color:#59B3A2"/>
			<stop  offset="1" style="stop-color:#DEE092"/>
		</linearGradient>
		<polygon class="st2" points="45.5,28.2 36.2,22.8 16.1,11.2 16.1,11.4 39.3,34.4 		"/>
		<linearGradient id="SVGID_5_" gradientUnits="userSpaceOnUse" x1="30.8194" y1="34.4021" x2="30.8194" y2="57.5949">
			<stop  offset="0" style="stop-color:#DC3332"/>
			<stop  offset="9.531295e-02" style="stop-color:#D3353B"/>
			<stop  offset="0.7049" style="stop-color:#9C3D72"/>
			<stop  offset="1" style="stop-color:#864188"/>
		</linearGradient>
		<polygon class="st3" points="16.1,57.4 16.1,57.6 36.2,46 45.5,40.6 39.3,34.4 		"/>
		<linearGradient id="SVGID_6_" gradientUnits="userSpaceOnUse" x1="47.784" y1="28.2197" x2="47.784" y2="40.5897">
			<stop  offset="0" style="stop-color:#E88079"/>
			<stop  offset="0.6276" style="stop-color:#F0AC74"/>
			<stop  offset="1" style="stop-color:#F4C272"/>
		</linearGradient>
		<polygon class="st4" points="45.5,28.2 39.3,34.4 45.5,40.6 56.3,34.4 		"/>
	</g>
	<g>
		<g>
			<path d="M162.3,40.9c-0.9,0-1.7-0.2-2.4-0.5c-0.7-0.3-1.3-0.8-1.8-1.5h-0.2c0.1,0.8,0.2,1.5,0.2,2.2v5.5h-2V27.3h1.7l0.3,1.8h0.1
				c0.5-0.7,1.1-1.3,1.8-1.6c0.7-0.3,1.5-0.5,2.4-0.5c1.8,0,3.1,0.6,4.1,1.8c1,1.2,1.4,2.9,1.4,5.1c0,2.2-0.5,3.9-1.5,5.1
				C165.4,40.3,164,40.9,162.3,40.9z M162,28.7c-1.4,0-2.4,0.4-3,1.1c-0.6,0.8-0.9,2-0.9,3.6V34c0,1.9,0.3,3.2,0.9,4
				c0.6,0.8,1.6,1.2,3,1.2c1.2,0,2.1-0.5,2.7-1.4c0.7-0.9,1-2.2,1-3.9c0-1.7-0.3-3-1-3.8C164.1,29.2,163.2,28.7,162,28.7z"/>
			<path d="M172.5,40.7h-2v-19h2V40.7z"/>
			<path d="M184.2,40.7l-0.4-1.9h-0.1c-0.7,0.8-1.3,1.4-2,1.7c-0.7,0.3-1.5,0.4-2.5,0.4c-1.3,0-2.4-0.3-3.1-1
				c-0.8-0.7-1.1-1.7-1.1-2.9c0-2.7,2.2-4.1,6.5-4.2l2.3-0.1v-0.8c0-1-0.2-1.8-0.7-2.3c-0.4-0.5-1.2-0.8-2.2-0.8
				c-1.1,0-2.4,0.3-3.8,1l-0.6-1.5c0.7-0.4,1.4-0.6,2.2-0.8c0.8-0.2,1.6-0.3,2.4-0.3c1.6,0,2.8,0.4,3.5,1.1c0.8,0.7,1.2,1.8,1.2,3.4
				v9.1H184.2z M179.6,39.2c1.3,0,2.3-0.3,3-1c0.7-0.7,1.1-1.7,1.1-2.9v-1.2l-2,0.1c-1.6,0.1-2.8,0.3-3.5,0.8
				c-0.7,0.4-1.1,1.1-1.1,2.1c0,0.7,0.2,1.3,0.7,1.7C178.2,39,178.8,39.2,179.6,39.2z"/>
			<path d="M186.9,27.3h2.2l2.9,7.6c0.6,1.7,1,3,1.2,3.8h0.1c0.1-0.4,0.3-1.1,0.7-2.1c0.3-1,1.4-4.1,3.3-9.3h2.2l-5.8,15.2
				c-0.6,1.5-1.2,2.6-2,3.2c-0.8,0.6-1.7,0.9-2.8,0.9c-0.6,0-1.2-0.1-1.8-0.2v-1.6c0.4,0.1,0.9,0.1,1.5,0.1c1.4,0,2.4-0.8,3-2.3
				l0.7-1.9L186.9,27.3z"/>
		</g>
		<g>
			<path d="M124.7,28.5c0.6,0.5,2,1.7,2,3.8c0,2.1-1.2,3.1-2.4,4c-0.4,0.4-0.8,0.8-0.8,1.4c0,0.6,0.4,0.9,0.7,1.2l1,0.8
				c1.2,1,2.4,2,2.4,3.9c0,2.6-2.5,5.3-7.4,5.3c-4.1,0-6-1.9-6-4c0-1,0.5-2.4,2.2-3.4c1.7-1.1,4.1-1.2,5.4-1.3
				c-0.4-0.5-0.8-1-0.8-1.9c0-0.5,0.1-0.8,0.3-1.1c-0.3,0-0.6,0.1-0.9,0.1c-3,0-4.6-2.2-4.6-4.4c0-1.3,0.6-2.7,1.8-3.8
				c1.6-1.3,3.5-1.5,5-1.5h5.8l-1.8,1H124.7z M122.7,40.9c-0.2,0-0.4,0-0.6,0c-0.3,0-1.8,0.1-2.9,0.5c-0.6,0.2-2.4,0.9-2.4,2.9
				c0,2,1.9,3.4,4.9,3.4c2.7,0,4.1-1.3,4.1-3C125.8,43.2,124.8,42.5,122.7,40.9z M123.5,35.6c0.6-0.6,0.7-1.5,0.7-2
				c0-2-1.2-5.2-3.5-5.2c-0.7,0-1.5,0.4-2,0.9c-0.5,0.6-0.6,1.3-0.6,2.1c0,1.9,1.1,5,3.5,5C122.3,36.4,123.1,36.1,123.5,35.6z"/>
			<path d="M107.1,40.5c-4.4,0-6.8-3.5-6.8-6.6c0-3.7,3-6.8,7.2-6.8c4.1,0,6.7,3.2,6.7,6.6C114.2,37,111.6,40.5,107.1,40.5z
				 M110.6,38.2c0.7-0.9,0.8-2,0.8-3.1c0-2.5-1.2-7.2-4.6-7.2c-0.9,0-1.8,0.4-2.5,1c-1.1,1-1.3,2.2-1.3,3.4c0,2.8,1.4,7.3,4.8,7.3
				C108.8,39.7,109.9,39.1,110.6,38.2z"/>
			<path d="M91.9,40.5c-4.4,0-6.8-3.5-6.8-6.6c0-3.7,3-6.8,7.2-6.8c4.1,0,6.7,3.2,6.7,6.6C99,37,96.5,40.5,91.9,40.5z M95.4,38.2
				c0.7-0.9,0.8-2,0.8-3.1c0-2.5-1.2-7.2-4.6-7.2c-0.9,0-1.8,0.4-2.5,1c-1.1,1-1.3,2.2-1.3,3.4c0,2.8,1.4,7.3,4.8,7.3
				C93.6,39.7,94.8,39.1,95.4,38.2z"/>
			<path d="M83,40.1l-4,0.9c-1.6,0.3-3.1,0.5-4.6,0.5c-7.8,0-10.7-5.7-10.7-10.2c0-5.5,4.2-10.5,11.4-10.5c1.5,0,3,0.2,4.3,0.6
				c2.1,0.6,3.1,1.3,3.7,1.7l-2.3,2.2l-1,0.2l0.7-1.1c-1-0.9-2.7-2.6-6-2.6c-4.4,0-7.8,3.4-7.8,8.3c0,5.3,3.8,10.3,10,10.3
				c1.8,0,2.7-0.4,3.6-0.7v-4.5l-4.2,0.2l2.2-1.2h6l-0.7,0.7c-0.2,0.2-0.2,0.2-0.3,0.4c0,0.3-0.1,1.1-0.1,1.3V40.1z"/>
			<path d="M133.6,39.3c-0.9-0.1-1.1-0.3-1.1-1.4v-0.3V22c0-0.1,0-0.1,0-0.2c0.1-1,0.4-1.2,1.3-1.7h-4l-2.1,1h2.2v0l0,0v16.4v0.9
				c0,0.6-0.1,0.6-0.8,1.5h5l1-0.6C134.5,39.3,134.1,39.3,133.6,39.3z"/>
			<path d="M145,39.5c-0.3,0.2-0.6,0.4-0.9,0.5c-0.9,0.4-1.9,0.5-2.7,0.5c-0.9,0-2.3-0.1-3.7-1.1c-2-1.4-2.8-3.8-2.8-5.9
				c0-4.3,3.5-6.4,6.4-6.4c1,0,2,0.2,2.9,0.8c1.4,0.9,1.8,2.1,2,2.8l-6.6,2.6l-2.1,0.2c0.7,3.5,3.1,5.6,5.8,5.6c1.4,0,2.5-0.5,3.4-1
				L145,39.5z M142.4,31.2c0.5-0.2,0.8-0.4,0.8-0.8c0-1.1-1.3-2.4-2.8-2.4c-1.1,0-3.2,0.9-3.2,3.9c0,0.5,0.1,1,0.1,1.5L142.4,31.2z"
				/>
			<g>
				<path d="M147.7,27.3v1.8h-0.2v-1.8h-0.6v-0.2h1.4v0.2H147.7z"/>
				<path d="M150.2,29.2v-1.9h0l-0.6,1.9h-0.2l-0.6-1.9h0v1.9h-0.2v-2h0.4l0.5,1.6h0l0.5-1.6h0.4v2H150.2z"/>
			</g>
		</g>
	</g>
</g>
</svg>
