<?xml version="1.0" encoding="utf-8"?>
<!-- Generator: Adobe Illustrator 25.0.1, SVG Export Plug-In . SVG Version: 6.00 Build 0)  -->
<svg version="1.1" id="Layer_1" xmlns="http://www.w3.org/2000/svg" xmlns:xlink="http://www.w3.org/1999/xlink" x="0px" y="0px"
	 viewBox="0 0 347.2 347.3" style="enable-background:new 0 0 347.2 347.3;" xml:space="preserve">
<g>
	<path d="M170.9,0c56.3,0,112.6,0,168.9,0c3.4,1.6,5.8,4.1,7.5,7.5c0,29.2,0,58.3,0,87.5c-2.7,5.9-7.4,7.6-13.7,7.6
		c-21.6-0.3-43.2-0.1-64.8-0.1c-1.2,0-2.4,0-3.4,0c0,7.1,0,13.6,0,20.3c1.4,0,2.6,0,3.9,0c15.4,0,30.7,0,46.1,0
		c6.8,0,10.5,3.1,11.6,9.8c4.2,25.3,18.3,99.6,20.3,111.8c-114.7,0-232.5,0-347.2,0c2.4-14.7,16.5-89.5,20.4-112.5
		c0.8-5,4.2-8.7,8.9-8.9c7.3-0.3,14.6-0.1,22.1-0.1c0,27.2,0,54.2,0,81.1c-6.9,1.6-10.5,5.7-10,11.3c0.5,5.4,4.9,9.2,10.7,9.2
		c33.6,0,67.1,0,100.7,0c5.7,0,9.9-3.7,10.6-9c0.6-5-2.6-9.5-8-11.1c-0.6-0.2-1.3-0.3-1.9-0.4c0-27,0-54,0-81.3
		c30.5,0,60.9,0,91.2,0c0-6.9,0-13.4,0-20.2c-1.4,0-2.6,0-3.8,0c-21.4,0-42.7-0.2-64.1,0.1c-8.5,0.1-13.6-4.1-13.4-13.6
		c0.4-25.1,0.3-50.2,0-75.3C163.3,7.4,165,2.7,170.9,0z M204.1,183.8c3.5,0,7,0.1,10.5,0c5.6-0.2,9.8-4.6,9.9-10
		c0.1-5.5-4.3-10.1-10-10.2c-6.9-0.1-13.8-0.1-20.6,0c-5.7,0.1-10.1,4.7-10,10.2c0,5.5,4.4,9.9,10.2,10.1
		C197.3,183.9,200.7,183.8,204.1,183.8z M265.2,183.8c3.3,0,6.5,0.1,9.8,0c6-0.1,10.5-4.4,10.5-10.1c0-5.7-4.4-10.1-10.4-10.2
		c-6.6-0.1-13.3-0.1-19.9,0c-5.9,0.1-10.4,4.6-10.4,10.2c0.1,5.5,4.4,9.9,10.2,10.1C258.4,183.8,261.8,183.8,265.2,183.8z
		 M204.1,224.5c3.3,0,6.5,0.1,9.8,0c6-0.1,10.5-4.4,10.5-10.1c0-5.7-4.4-10.1-10.4-10.2c-6.6-0.1-13.3-0.1-19.9,0
		c-5.9,0.1-10.4,4.6-10.3,10.3c0.1,5.5,4.4,9.9,10.2,10C197.4,224.5,200.8,224.5,204.1,224.5z M265.3,204.1c-3.5,0-7-0.1-10.5,0
		c-5.5,0.2-9.9,4.6-10,10c-0.1,5.5,4.2,10.2,9.9,10.3c6.9,0.2,13.8,0.1,20.6,0c5.8-0.1,10.1-4.6,10.1-10.1c0-5.5-4.3-10-10.1-10.2
		C272,204,268.6,204.1,265.3,204.1z M265.1,51.6c0.1-5.5-4.5-10.2-10-10.2c-5.5-0.1-10.2,4.4-10.3,9.9c-0.1,5.6,4.5,10.4,10.2,10.4
		C260.5,61.7,265.1,57.1,265.1,51.6z M305.8,51.4c-0.1-5.5-4.7-10.1-10.2-10c-5.5,0-10.1,4.6-10.1,10.1c0,5.6,4.8,10.3,10.4,10.2
		C301.4,61.6,305.9,56.9,305.8,51.4z"/>
	<path d="M347.2,339.7c-2.7,5.9-7.4,7.6-13.7,7.5c-106.9-0.1-213.8-0.1-320.7-0.1c-9.3,0-12.9-3.6-12.9-12.9c0-21.7,0-64.2,0-85.9
		c0-1.2,0-2.4,0-4.1c115.9,0,231.6,0,347.2,0C347.2,269.2,347.2,314.9,347.2,339.7z M173.9,295.7c-6.7,0-13.3,0-20,0
		c-6.3,0-10.8,4.3-10.9,10.1c0,5.8,4.5,10.2,10.7,10.2c13.2,0.1,26.4,0.1,39.6,0c6.2,0,10.8-4.4,10.7-10.2c0-5.8-4.6-10-10.9-10.1
		C186.8,295.6,180.4,295.7,173.9,295.7z"/>
	<path d="M132.8,204c-20.3,0-40.3,0-60.9,0c0-1.2,0-2.4,0-3.6c0-35.5,0-70.9,0-106.4c0-8,3.9-11.9,11.8-11.9c12.8,0,25.5,0,38.3,0
		c6.6,0,10.9,4.2,10.9,10.7c0,36.6,0,73.2,0,109.8C132.9,202.9,132.8,203.2,132.8,204z"/>
</g>
</svg>
