<?xml version="1.0" encoding="utf-8"?>
<!-- Generator: Adobe Illustrator 16.0.0, SVG Export Plug-In . SVG Version: 6.00 Build 0)  -->
<!DOCTYPE svg PUBLIC "-//W3C//DTD SVG 1.1//EN" "http://www.w3.org/Graphics/SVG/1.1/DTD/svg11.dtd">
<svg version="1.1" id="Layer_1" xmlns="http://www.w3.org/2000/svg" xmlns:xlink="http://www.w3.org/1999/xlink" x="0px" y="0px"
	 width="33px" height="33px" viewBox="0 0 33 33" enable-background="new 0 0 33 33" xml:space="preserve">
<g>
	<circle fill="#FFFFFF" stroke="#FF3333" stroke-miterlimit="10" cx="16.5" cy="16.5" r="16"/>
	<path fill="#FF3333" d="M22.348,16.668c-0.331-0.264-0.812-0.21-1.078,0.119l-2.262,2.826l-3.495-4.894
		c1.467-0.539,2.521-1.938,2.521-3.588c0-2.114-1.72-3.834-3.833-3.834h-3.068c-0.424,0-0.767,0.343-0.767,0.767v10.736
		c0,0.424,0.343,0.767,0.767,0.767s0.767-0.343,0.767-0.767v-3.834h1.906l4.208,5.891l-2.879,3.599
		c-0.264,0.331-0.21,0.813,0.12,1.079c0.142,0.112,0.311,0.167,0.479,0.167c0.225,0,0.448-0.099,0.6-0.287l2.607-3.26l2.305,3.226
		c0.15,0.21,0.385,0.321,0.625,0.321c0.154,0,0.311-0.046,0.445-0.143c0.344-0.245,0.424-0.725,0.178-1.069l-2.557-3.579
		l2.531-3.165C22.732,17.415,22.678,16.933,22.348,16.668z M11.899,8.831H14.2c1.269,0,2.3,1.032,2.3,2.301s-1.032,2.301-2.3,2.301
		h-2.301V8.831z"/>
</g>
</svg>
