<svg id="Layer_1" data-name="Layer 1" xmlns="http://www.w3.org/2000/svg" viewBox="0 0 62.5 62.5"><defs><style>.cls-1{fill:#7b3dd9;}</style></defs><path class="cls-1" d="M53.35,9.15a31.25,31.25,0,0,0-44.2,44.2,31.25,31.25,0,0,0,44.2-44.2ZM47.1,54.39a28,28,0,0,1-31.7,0l-.13-.09,0-.16a16.19,16.19,0,0,1,31.9,0l0,.16ZM21,27.3A10.27,10.27,0,1,1,31.25,37.56,10.29,10.29,0,0,1,21,27.3ZM50.33,51.81l-.3.28-.11-.4A19.44,19.44,0,0,0,38.62,39l-.44-.19.4-.25a13.46,13.46,0,1,0-14.66,0l.4.25-.44.19a19,19,0,0,0-5.63,3.55,19.38,19.38,0,0,0-5.67,9.12l-.11.39-.3-.27a28.06,28.06,0,1,1,38.16,0Z"/></svg>