<?xml version="1.0" encoding="utf-8"?>
<!-- Generator: Adobe Illustrator 16.0.0, SVG Export Plug-In . SVG Version: 6.00 Build 0)  -->
<!DOCTYPE svg PUBLIC "-//W3C//DTD SVG 1.1//EN" "http://www.w3.org/Graphics/SVG/1.1/DTD/svg11.dtd">
<svg version="1.1" id="Layer_1" xmlns="http://www.w3.org/2000/svg" xmlns:xlink="http://www.w3.org/1999/xlink" x="0px" y="0px"
	 width="17.522px" height="17.453px" viewBox="0 0 17.522 17.453" enable-background="new 0 0 17.522 17.453" xml:space="preserve">
<path fill="#3AC6F4" d="M8.783,0C3.957-0.009,0.004,3.912,0,8.715c-0.005,4.806,3.938,8.739,8.76,8.737
	c4.825,0,8.767-3.932,8.762-8.736C17.518,3.929,13.588,0.01,8.783,0 M8.731,16.416c-4.242-0.012-7.7-3.483-7.69-7.72
	C1.05,4.473,4.54,1.025,8.791,1.037c4.243,0.011,7.701,3.483,7.69,7.719C16.469,12.981,12.982,16.428,8.731,16.416"/>
<path fill="#3AC6F4" d="M9.281,5.591c0.001,0.604,0,1.208,0.001,1.812c0,0.584,0.227,0.805,0.82,0.805
	c0.664,0.001,1.328-0.003,1.994,0.002c0.426,0.002,0.653,0.188,0.652,0.518c-0.001,0.329-0.228,0.513-0.654,0.516
	C11.4,9.248,10.707,9.25,10.012,9.243C9.805,9.241,9.652,9.276,9.49,9.447C9.08,9.882,8.432,9.864,8.023,9.448
	c-0.41-0.417-0.415-1.047,0.026-1.462C8.205,7.839,8.245,7.7,8.244,7.504c-0.006-1.28-0.006-2.56-0.002-3.841
	c0.002-0.43,0.232-0.682,0.576-0.632c0.323,0.048,0.464,0.258,0.464,0.575C9.281,4.268,9.281,4.929,9.281,5.591"/>
</svg>
