<?xml version="1.0" encoding="utf-8"?>
<!-- Generator: Adobe Illustrator 24.1.2, SVG Export Plug-In . SVG Version: 6.00 Build 0)  -->
<svg version="1.1" id="Layer_1" xmlns="http://www.w3.org/2000/svg" xmlns:xlink="http://www.w3.org/1999/xlink" x="0px" y="0px"
	 viewBox="0 0 32.4 30" style="enable-background:new 0 0 32.4 30;" xml:space="preserve">
<style type="text/css">
	.st0{fill:#86C03F;}
	.st1{fill:#E71C24;}
</style>
<g>
	<g>
		<path class="st1" d="M29.5,6.9h-0.4V3c0-1.6-1.3-3-3-3H4.6C2.2,0,0.3,1.8,0,4.1c0,0.2,0-1.3,0,21.3C0,27.9,2.1,30,4.6,30h24.9
			c1.6,0,3-1.3,3-3V9.9C32.4,8.2,31.1,6.9,29.5,6.9L29.5,6.9z M4.6,2h21.5C26.6,2,27,2.5,27,3v3.9H4.6C3.2,6.9,2.1,5.8,2,4.5
			C2.1,3.1,3.2,2,4.6,2z M29.5,28H4.6C3.2,28,2,26.8,2,25.4V8.2c0.7,0.5,1.6,0.8,2.5,0.8h24.9c0.5,0,0.9,0.4,0.9,0.9V14h-7.7
			c-2.6,0-4.7,2.1-4.7,4.7s2.1,4.7,4.7,4.7h7.7V27C30.4,27.5,30,28,29.5,28L29.5,28z M30.4,21.4h-7.7c-1.5,0-2.7-1.2-2.7-2.7
			s1.2-2.7,2.7-2.7h7.7V21.4z"/>
		<circle class="st1" cx="23.1" cy="18.7" r="1.5"/>
	</g>
	<g>
		<g>
			<g>
				<path class="st1" d="M15.2,17.3c-0.2,0.2-0.3,0.1-0.5-0.1l-3.5-3.5l-3.5,3.5c-0.2,0.2-0.4,0.3-0.5,0.1c-0.2-0.2-0.1-0.4,0.1-0.5
					l0,0l3.6-3.6c0.2-0.2,0.4-0.2,0.6,0l3.6,3.6C15.3,16.9,15.4,17.1,15.2,17.3L15.2,17.3z"/>
				<path class="st1" d="M7.4,17.6C7.4,17.6,7.4,17.6,7.4,17.6c-0.1,0-0.2,0-0.4-0.2c-0.1-0.1-0.2-0.3-0.1-0.5
					c0-0.1,0.1-0.3,0.2-0.4l3.6-3.6c0.3-0.3,0.7-0.3,1,0l3.6,3.6c0.4,0.4,0.2,0.8,0.1,0.9c-0.1,0.1-0.4,0.3-0.9-0.1L11.2,14
					l-3.3,3.3C7.7,17.5,7.6,17.6,7.4,17.6z M11.2,13.3l3.7,3.7c0.1,0.1,0.1,0.1,0.2,0.1l0,0c0,0,0,0,0,0c0,0,0-0.1-0.1-0.2l-3.6-3.6
					c-0.1-0.1-0.2-0.1-0.3,0l-3.6,3.6c-0.1,0.1-0.1,0.1-0.1,0.2c0.1,0,0.1,0,0.2-0.1L11.2,13.3z"/>
			</g>
		</g>
		<g>
			<g>
				<path class="st1" d="M11.2,23c-0.2,0-0.3-0.1-0.3-0.3v-9.3c0-0.2,0.1-0.3,0.3-0.3s0.3,0.1,0.3,0.3v9.3
					C11.5,22.9,11.4,23,11.2,23z"/>
				<path class="st1" d="M11.2,23.3c-0.3,0-0.6-0.3-0.6-0.6v-9.3c0-0.3,0.3-0.6,0.6-0.6s0.6,0.3,0.6,0.6v9.3
					C11.8,23,11.5,23.3,11.2,23.3z M11.2,13.3C11.2,13.3,11.1,13.3,11.2,13.3l-0.1,9.4c0,0.1,0.2,0.1,0.2,0L11.2,13.3
					C11.3,13.3,11.3,13.3,11.2,13.3z"/>
			</g>
		</g>
	</g>
</g>
</svg>
