<?xml version="1.0" encoding="utf-8"?>
<!-- Generator: Adobe Illustrator 16.0.0, SVG Export Plug-In . SVG Version: 6.00 Build 0)  -->
<!DOCTYPE svg PUBLIC "-//W3C//DTD SVG 1.1//EN" "http://www.w3.org/Graphics/SVG/1.1/DTD/svg11.dtd">
<svg version="1.1" id="Layer_1" xmlns="http://www.w3.org/2000/svg" xmlns:xlink="http://www.w3.org/1999/xlink" x="0px" y="0px"
	 width="28.195px" height="26.583px" viewBox="0 0 28.195 26.583" enable-background="new 0 0 28.195 26.583" xml:space="preserve">
<g>
	<g>
		<circle fill="#33CC66" cx="14.098" cy="13.292" r="8.476"/>
	</g>
	<g>
		<path fill="#33CC66" d="M26.637,26.583H1.56c-0.86,0-1.56-0.7-1.56-1.56V1.559C0,0.7,0.699,0,1.56,0h25.077
			c0.859,0,1.559,0.7,1.559,1.559v23.464C28.195,25.883,27.496,26.583,26.637,26.583z M1.56,1.04c-0.288,0-0.52,0.233-0.52,0.52
			v23.464c0,0.287,0.232,0.52,0.52,0.52h25.077c0.286,0,0.52-0.232,0.52-0.52V1.559c0-0.286-0.233-0.52-0.52-0.52H1.56z"/>
	</g>
</g>
</svg>
