<svg id="Layer_1" data-name="Layer 1" xmlns="http://www.w3.org/2000/svg" viewBox="0 0 55 50.88">

    <path fill="#FAAF3B" d="M7.77,50.73H50a4.89,4.89,0,0,0,4.88-4.88V16.71A4.89,4.89,0,0,0,50,11.83h-.83V5A4.89,4.89,0,0,0,44.26.15H7.77A7.58,7.58,0,0,0,.19,7l0,.08c0,.11,0,1.59,0,13.15V43.11A7.63,7.63,0,0,0,7.77,50.73ZM51.7,36.47H38.54a4.73,4.73,0,0,1,0-9.45H51.7ZM7.77,3.31H44.26A1.72,1.72,0,0,1,46,5v6.8H7.77A4.46,4.46,0,0,1,3.31,7.57,4.45,4.45,0,0,1,7.77,3.31ZM3.31,13.54l.23.16A7.59,7.59,0,0,0,7.77,15H50a1.74,1.74,0,0,1,1.73,1.73v7.15H38.54a7.88,7.88,0,0,0,0,15.76H51.7v6.23A1.73,1.73,0,0,1,50,47.57H7.77a4.46,4.46,0,0,1-4.46-4.46Z"/>
    <circle fill="#FAAF3B" cx="39.18" cy="31.74" r="2.35"/></svg>