<?xml version="1.0" encoding="utf-8"?>
<!-- Generator: Adobe Illustrator 24.1.3, SVG Export Plug-In . SVG Version: 6.00 Build 0)  -->
<svg version="1.1" id="Layer_1" xmlns="http://www.w3.org/2000/svg" xmlns:xlink="http://www.w3.org/1999/xlink" x="0px" y="0px"
	 viewBox="0 0 15.1 13.5" style="enable-background:new 0 0 15.1 13.5;" xml:space="preserve">
<style type="text/css">
	.st0{fill:none;stroke:#FFFFFF;stroke-miterlimit:10;}
</style>
<g>
</g>
<g>
	<path class="st0" d="M13.6,1.7c-0.7-0.8-1.7-1.2-2.7-1.2c-1.5,0-2.4,0.9-3,1.6C7.8,2.3,7.7,2.5,7.6,2.7C7.5,2.5,7.4,2.3,7.2,2.1
		c-0.5-0.7-1.5-1.6-3-1.6c-1.1,0-2,0.4-2.7,1.2c-0.7,0.8-1,1.8-1,2.8C0.5,5.8,1,6.8,1.9,8c0.9,1,2.2,2.1,3.6,3.4
		c0.5,0.5,1.1,0.9,1.7,1.5l0,0C7.4,13,7.5,13,7.6,13s0.2,0,0.3-0.1l0,0c0.6-0.5,1.2-1,1.7-1.5c1.5-1.3,2.7-2.3,3.6-3.4
		c1-1.2,1.4-2.3,1.4-3.4C14.6,3.5,14.3,2.5,13.6,1.7z"/>
</g>
</svg>
