<?xml version="1.0" encoding="utf-8"?>
<!-- Generator: Adobe Illustrator 16.0.0, SVG Export Plug-In . SVG Version: 6.00 Build 0)  -->
<!DOCTYPE svg PUBLIC "-//W3C//DTD SVG 1.1//EN" "http://www.w3.org/Graphics/SVG/1.1/DTD/svg11.dtd">
<svg version="1.1" id="Layer_1" xmlns="http://www.w3.org/2000/svg" xmlns:xlink="http://www.w3.org/1999/xlink" x="0px" y="0px"
	 width="57.48px" height="57.439px" viewBox="0 0 57.48 57.439" enable-background="new 0 0 57.48 57.439" xml:space="preserve">
<g>
	<g>
		<g>
			<path fill="#00A9FF" d="M28.738,43.264c-0.795,0-1.437-0.643-1.437-1.436V20.926c0-0.795,0.642-1.438,1.437-1.438
				s1.439,0.643,1.439,1.438v20.902C30.178,42.621,29.533,43.264,28.738,43.264L28.738,43.264z"/>
		</g>
		<g>
			<path fill="#00A9FF" d="M28.738,17.144c-0.795,0-1.438-0.644-1.438-1.437v-0.096c0-0.793,0.643-1.436,1.438-1.436
				s1.438,0.643,1.438,1.436v0.096C30.176,16.5,29.533,17.144,28.738,17.144L28.738,17.144z"/>
		</g>
	</g>
	<path fill="#00A9FF" d="M51.641,46.041c0.051-0.066,0.104-0.133,0.152-0.199c0.238-0.319,0.469-0.645,0.693-0.975
		c0.123-0.179,0.24-0.363,0.359-0.547c0.299-0.461,0.586-0.93,0.857-1.408c0.16-0.277,0.314-0.555,0.465-0.838
		c0.133-0.256,0.267-0.511,0.395-0.77c0.24-0.49,0.469-0.986,0.682-1.491c0.082-0.2,0.158-0.401,0.236-0.603
		c0.166-0.422,0.322-0.85,0.471-1.279c0.062-0.186,0.129-0.369,0.187-0.557c0.182-0.57,0.345-1.15,0.491-1.736
		c0.045-0.182,0.084-0.365,0.124-0.549c0.118-0.512,0.224-1.029,0.312-1.553c0.023-0.133,0.051-0.264,0.069-0.396
		c0.099-0.62,0.168-1.248,0.226-1.881c0.018-0.182,0.029-0.363,0.043-0.547c0.041-0.633,0.072-1.271,0.074-1.916
		c0-0.02,0.004-0.041,0.004-0.061c0-0.006-0.002-0.012-0.002-0.016c0-0.006,0.002-0.012,0.002-0.018c0-0.02-0.004-0.039-0.004-0.06
		c-0.002-0.646-0.033-1.284-0.074-1.917c-0.014-0.184-0.025-0.365-0.043-0.547c-0.058-0.633-0.127-1.26-0.226-1.879
		c-0.019-0.135-0.048-0.266-0.069-0.4c-0.088-0.521-0.193-1.039-0.309-1.551c-0.043-0.184-0.082-0.367-0.129-0.551
		c-0.145-0.584-0.308-1.162-0.489-1.732c-0.058-0.189-0.124-0.373-0.188-0.561c-0.146-0.43-0.301-0.852-0.467-1.271
		c-0.08-0.203-0.156-0.408-0.24-0.609c-0.211-0.502-0.439-0.996-0.678-1.484c-0.13-0.264-0.266-0.523-0.404-0.783
		c-0.143-0.275-0.295-0.546-0.447-0.814c-0.281-0.496-0.579-0.979-0.889-1.455c-0.109-0.17-0.219-0.34-0.332-0.508
		c-0.229-0.336-0.465-0.666-0.707-0.992c-0.037-0.051-0.078-0.102-0.117-0.152c-0.514-0.68-1.057-1.336-1.629-1.969
		C50.019,9.445,50,9.424,49.98,9.402c-2.389-2.629-5.271-4.822-8.546-6.436c-0.142-0.072-0.286-0.143-0.434-0.211
		c-0.534-0.254-1.081-0.488-1.636-0.711c-0.258-0.102-0.516-0.209-0.777-0.305c-0.137-0.049-0.264-0.111-0.402-0.158
		c-0.062-0.021-0.127-0.031-0.193-0.045C35.086,0.547,31.975,0,28.735,0C25.5,0,22.387,0.547,19.48,1.539
		c-0.063,0.012-0.127,0.022-0.188,0.043c-0.133,0.045-0.252,0.104-0.383,0.15c-0.455,0.166-0.906,0.344-1.352,0.531
		c-0.355,0.15-0.705,0.312-1.051,0.477c-0.172,0.08-0.342,0.164-0.512,0.25c-0.715,0.354-1.411,0.732-2.084,1.141
		c-0.027,0.016-0.055,0.029-0.08,0.045C11.465,5.615,9.346,7.373,7.51,9.387c-0.031,0.035-0.062,0.07-0.094,0.105
		c-0.557,0.615-1.08,1.249-1.579,1.906c-0.05,0.066-0.103,0.133-0.151,0.199c-0.238,0.32-0.469,0.645-0.693,0.975
		c-0.123,0.18-0.24,0.364-0.359,0.547c-0.299,0.461-0.586,0.93-0.857,1.408c-0.158,0.277-0.314,0.555-0.463,0.838
		c-0.135,0.256-0.27,0.512-0.396,0.771c-0.24,0.49-0.469,0.986-0.682,1.49c-0.083,0.199-0.158,0.4-0.236,0.602
		c-0.166,0.422-0.322,0.848-0.471,1.279c-0.062,0.186-0.129,0.369-0.188,0.557c-0.182,0.57-0.344,1.15-0.489,1.736
		c-0.046,0.182-0.085,0.365-0.126,0.549c-0.117,0.512-0.223,1.031-0.311,1.553c-0.023,0.133-0.051,0.264-0.072,0.396
		c-0.098,0.621-0.166,1.248-0.223,1.881c-0.018,0.182-0.031,0.363-0.043,0.547c-0.043,0.633-0.072,1.271-0.075,1.917
		c0,0.021-0.001,0.04-0.001,0.06c0,0.006,0,0.012,0,0.018c0,0.004,0,0.01,0,0.016c0,0.02,0.001,0.041,0.001,0.061
		c0.003,0.645,0.032,1.283,0.075,1.916c0.012,0.184,0.025,0.365,0.043,0.547c0.057,0.633,0.125,1.261,0.223,1.879
		c0.021,0.135,0.051,0.268,0.072,0.4c0.088,0.522,0.193,1.039,0.308,1.551c0.044,0.184,0.084,0.367,0.129,0.551
		c0.146,0.586,0.308,1.164,0.489,1.734c0.059,0.188,0.127,0.373,0.188,0.559c0.148,0.428,0.301,0.854,0.469,1.271
		c0.08,0.203,0.155,0.408,0.24,0.611c0.213,0.502,0.439,0.995,0.678,1.482c0.129,0.265,0.264,0.523,0.402,0.783
		c0.145,0.275,0.295,0.547,0.449,0.816c0.281,0.494,0.576,0.979,0.889,1.454c0.109,0.169,0.217,0.341,0.332,0.507
		c0.229,0.336,0.465,0.666,0.707,0.992c0.037,0.051,0.077,0.102,0.117,0.152c0.514,0.682,1.057,1.336,1.627,1.969
		c0.021,0.021,0.041,0.043,0.061,0.066c2.388,2.627,5.271,4.82,8.545,6.434c0.143,0.072,0.285,0.143,0.432,0.211
		c0.543,0.256,1.096,0.494,1.658,0.719c0.252,0.1,0.502,0.203,0.758,0.297c0.137,0.051,0.264,0.111,0.402,0.158
		c0.064,0.021,0.127,0.031,0.193,0.045c2.906,0.991,6.018,1.537,9.256,1.537s6.35-0.546,9.256-1.539
		c0.062-0.012,0.125-0.021,0.188-0.043c0.131-0.045,0.252-0.104,0.382-0.15c0.454-0.166,0.907-0.342,1.351-0.531
		c0.357-0.15,0.705-0.312,1.052-0.477c0.173-0.08,0.345-0.164,0.515-0.25c0.713-0.354,1.408-0.732,2.083-1.141
		c0.026-0.014,0.053-0.029,0.079-0.045c2.367-1.438,4.487-3.197,6.319-5.211c0.034-0.034,0.065-0.07,0.099-0.107
		C50.617,47.334,51.143,46.697,51.641,46.041z M19.914,53.014c-0.422-0.154-0.84-0.316-1.25-0.49
		c-0.307-0.131-0.607-0.27-0.908-0.412c-0.174-0.082-0.346-0.166-0.518-0.252c-0.609-0.305-1.211-0.629-1.795-0.98
		c-0.044-0.026-0.09-0.051-0.131-0.078c-1.053-0.643-2.057-1.357-3.004-2.137c-0.008-0.006-0.016-0.014-0.023-0.02
		c-0.939-0.777-1.824-1.619-2.645-2.52c-0.035-0.037-0.066-0.074-0.102-0.111c-0.492-0.547-0.963-1.113-1.406-1.7
		c-0.049-0.063-0.098-0.124-0.143-0.187c-0.215-0.287-0.423-0.578-0.623-0.875c-0.109-0.16-0.216-0.324-0.32-0.486
		c-0.271-0.418-0.533-0.846-0.781-1.281c-0.139-0.244-0.279-0.49-0.408-0.738c-0.123-0.234-0.246-0.469-0.365-0.707
		c-0.211-0.438-0.416-0.879-0.604-1.328c-0.078-0.188-0.15-0.379-0.225-0.566c-0.145-0.369-0.281-0.74-0.408-1.115
		c-0.061-0.176-0.123-0.352-0.18-0.529c-0.16-0.509-0.306-1.021-0.434-1.541c-0.045-0.174-0.082-0.35-0.123-0.525
		c-0.1-0.443-0.191-0.891-0.268-1.344c-0.023-0.135-0.051-0.268-0.074-0.403c-0.084-0.55-0.146-1.106-0.195-1.664
		c-0.017-0.175-0.029-0.349-0.041-0.524c-0.038-0.553-0.064-1.109-0.066-1.672c0-0.037-0.004-0.076-0.004-0.115
		c0-0.012,0-0.024,0-0.037c0.004-0.59,0.031-1.174,0.072-1.756c0.01-0.16,0.021-0.32,0.037-0.479
		c0.047-0.572,0.113-1.139,0.201-1.701c0.02-0.115,0.043-0.23,0.062-0.346c0.08-0.475,0.176-0.947,0.281-1.413
		c0.037-0.161,0.072-0.323,0.111-0.483c0.133-0.529,0.279-1.053,0.443-1.572c0.053-0.16,0.109-0.32,0.164-0.48
		c0.133-0.398,0.277-0.793,0.434-1.182c0.066-0.172,0.133-0.346,0.203-0.516c0.193-0.461,0.404-0.914,0.623-1.363
		c0.107-0.223,0.225-0.443,0.338-0.662c0.145-0.273,0.295-0.543,0.449-0.809c0.225-0.394,0.461-0.781,0.705-1.16
		c0.127-0.195,0.252-0.393,0.381-0.584c0.193-0.283,0.393-0.561,0.598-0.836c0.07-0.094,0.145-0.186,0.215-0.279
		c0.418-0.547,0.855-1.075,1.312-1.586c0.055-0.059,0.107-0.119,0.158-0.176c0.809-0.883,1.674-1.707,2.594-2.471
		c0.033-0.025,0.065-0.053,0.1-0.08c0.615-0.506,1.252-0.982,1.913-1.43c0.009-0.006,0.017-0.012,0.024-0.018
		c0.326-0.221,0.658-0.432,0.994-0.637c0.09-0.057,0.184-0.109,0.275-0.162c0.527-0.314,1.07-0.609,1.623-0.887
		c0.203-0.102,0.404-0.203,0.613-0.299c0.279-0.131,0.557-0.26,0.841-0.381c0.429-0.182,0.862-0.352,1.3-0.512
		c2.749-0.996,5.713-1.543,8.798-1.543c3.098,0,6.067,0.549,8.821,1.551c0.427,0.154,0.85,0.32,1.266,0.496
		c0.301,0.129,0.595,0.266,0.891,0.402c0.182,0.086,0.357,0.174,0.539,0.264c0.599,0.299,1.186,0.619,1.758,0.963
		c0.055,0.031,0.109,0.061,0.162,0.094c1.049,0.639,2.049,1.352,2.994,2.131c0.01,0.008,0.02,0.016,0.029,0.023
		c0.938,0.775,1.822,1.617,2.642,2.517c0.034,0.038,0.069,0.075,0.104,0.114c0.49,0.545,0.959,1.111,1.4,1.697
		c0.051,0.062,0.102,0.125,0.148,0.188c0.213,0.286,0.42,0.577,0.621,0.874c0.109,0.16,0.217,0.326,0.322,0.488
		c0.27,0.418,0.531,0.846,0.779,1.279c0.139,0.244,0.277,0.49,0.407,0.738c0.124,0.234,0.247,0.471,0.363,0.707
		c0.214,0.438,0.419,0.879,0.604,1.33c0.08,0.188,0.15,0.377,0.227,0.566c0.145,0.367,0.279,0.738,0.407,1.111
		c0.062,0.178,0.124,0.354,0.181,0.533c0.162,0.508,0.305,1.02,0.434,1.539c0.045,0.174,0.082,0.35,0.123,0.525
		c0.1,0.445,0.189,0.893,0.268,1.344c0.022,0.135,0.049,0.268,0.072,0.404c0.086,0.549,0.148,1.105,0.199,1.664
		c0.016,0.174,0.027,0.348,0.039,0.523c0.037,0.555,0.064,1.109,0.065,1.672c0,0.037,0.003,0.076,0.003,0.115
		c0,0.012,0,0.025,0,0.037c-0.003,0.59-0.029,1.174-0.07,1.757c-0.01,0.159-0.021,0.319-0.037,0.479
		c-0.049,0.57-0.113,1.137-0.201,1.699c-0.018,0.115-0.043,0.23-0.062,0.346c-0.08,0.477-0.176,0.947-0.281,1.414
		c-0.037,0.16-0.072,0.322-0.111,0.482c-0.133,0.529-0.279,1.053-0.443,1.572c-0.051,0.162-0.111,0.32-0.164,0.48
		c-0.135,0.398-0.279,0.793-0.434,1.182c-0.068,0.172-0.133,0.346-0.203,0.516c-0.194,0.463-0.402,0.916-0.623,1.363
		c-0.109,0.223-0.225,0.443-0.34,0.662c-0.143,0.272-0.293,0.541-0.445,0.809c-0.229,0.395-0.463,0.781-0.709,1.164
		c-0.127,0.193-0.25,0.389-0.381,0.58c-0.193,0.283-0.391,0.562-0.596,0.836c-0.069,0.094-0.145,0.186-0.213,0.277
		c-0.42,0.547-0.857,1.078-1.316,1.59c-0.055,0.059-0.104,0.117-0.156,0.174c-0.809,0.883-1.676,1.709-2.598,2.473
		c-0.029,0.025-0.061,0.049-0.09,0.074c-0.623,0.512-1.268,0.996-1.938,1.447v0.001c-0.33,0.222-0.666,0.437-1.004,0.644
		c-0.082,0.051-0.168,0.098-0.252,0.146c-0.538,0.322-1.09,0.623-1.654,0.904c-0.197,0.1-0.393,0.195-0.592,0.289
		c-0.283,0.133-0.568,0.266-0.858,0.389c-0.421,0.178-0.851,0.348-1.286,0.505c-2.75,0.999-5.715,1.546-8.805,1.546
		C25.643,54.566,22.67,54.018,19.914,53.014z"/>
</g>
</svg>
