<?xml version="1.0" encoding="utf-8"?>
<!-- Generator: Adobe Illustrator 25.0.1, SVG Export Plug-In . SVG Version: 6.00 Build 0)  -->
<svg version="1.1" id="Layer_1" xmlns="http://www.w3.org/2000/svg" xmlns:xlink="http://www.w3.org/1999/xlink" x="0px" y="0px"
	 viewBox="0 0 64 64" style="enable-background:new 0 0 64 64;" xml:space="preserve">
<style type="text/css">
	.st0{clip-path:url(#SVGID_2_);fill:url(#SVGID_3_);}
	.st1{clip-path:url(#SVGID_2_);fill:url(#SVGID_4_);}
	.st2{clip-path:url(#SVGID_2_);fill:url(#SVGID_5_);}
	.st3{clip-path:url(#SVGID_2_);fill:url(#SVGID_6_);}
</style>
<g>
	<g id="PLAY_2_">
		<defs>
			<path id="SVGID_1_" d="M46.1,23l-13.4-7.7c0,0-24.4-14.1-25.8-14.9C5.4-0.4,4,0.1,4,1.8c0,2.9,0,30.1,0,30.1s0,29.4,0,30.7
				c0,1.3,1,1.9,2.3,1.1C7.5,63,32.7,48.4,32.7,48.4l13.4-7.7c0,0,11.4-6.6,12.9-7.4c1.5-0.9,1.4-2.1,0.1-2.8
				C57.7,29.8,46.1,23,46.1,23z"/>
		</defs>
		<clipPath id="SVGID_2_">
			<use xlink:href="#SVGID_1_"  style="overflow:visible;"/>
		</clipPath>
		<linearGradient id="SVGID_3_" gradientUnits="userSpaceOnUse" x1="20.5673" y1="-1.0275" x2="20.5673" y2="64.7514">
			<stop  offset="0" style="stop-color:#207AA7"/>
			<stop  offset="0.2717" style="stop-color:#4191AB"/>
			<stop  offset="0.7623" style="stop-color:#78B7B2"/>
			<stop  offset="1" style="stop-color:#8EC6B5"/>
		</linearGradient>
		<polygon class="st0" points="4,-1 4,31.9 4,64.8 37.2,31.9 		"/>
		<linearGradient id="SVGID_4_" gradientUnits="userSpaceOnUse" x1="3.9841" y1="15.2972" x2="46.0564" y2="15.2972">
			<stop  offset="0" style="stop-color:#59B2A1"/>
			<stop  offset="1" style="stop-color:#DDDF91"/>
		</linearGradient>
		<polygon class="st1" points="46.1,23 32.7,15.3 4,-1.3 4,-1 37.2,31.9 		"/>
		<linearGradient id="SVGID_5_" gradientUnits="userSpaceOnUse" x1="25.0203" y1="31.8602" x2="25.0203" y2="64.9902">
			<stop  offset="0" style="stop-color:#DB3332"/>
			<stop  offset="9.531295e-02" style="stop-color:#D2353B"/>
			<stop  offset="0.7049" style="stop-color:#9B3D72"/>
			<stop  offset="1" style="stop-color:#854187"/>
		</linearGradient>
		<polygon class="st2" points="4,64.8 4,65 32.7,48.4 46.1,40.7 37.2,31.9 		"/>
		<linearGradient id="SVGID_6_" gradientUnits="userSpaceOnUse" x1="49.2534" y1="23.0289" x2="49.2534" y2="40.6989">
			<stop  offset="0" style="stop-color:#E78079"/>
			<stop  offset="0.6226" style="stop-color:#EFAB74"/>
			<stop  offset="1" style="stop-color:#F3C172"/>
		</linearGradient>
		<polygon class="st3" points="46.1,23 37.2,31.9 46.1,40.7 61.4,31.9 		"/>
	</g>
</g>
</svg>
