<?xml version="1.0" encoding="utf-8"?>
<!-- Generator: Adobe Illustrator 16.0.0, SVG Export Plug-In . SVG Version: 6.00 Build 0)  -->
<!DOCTYPE svg PUBLIC "-//W3C//DTD SVG 1.1//EN" "http://www.w3.org/Graphics/SVG/1.1/DTD/svg11.dtd">
<svg version="1.1" id="Layer_1" xmlns="http://www.w3.org/2000/svg" xmlns:xlink="http://www.w3.org/1999/xlink" x="0px" y="0px"
	 width="54.794px" height="63.156px" viewBox="0 0 54.794 63.156" enable-background="new 0 0 54.794 63.156" xml:space="preserve">
<g>
	<g>
		<g>
			<g>
				<path fill="none" stroke="#000000" stroke-width="3" stroke-miterlimit="10" d="M53.108,53.927l-4.444-7.414
					c-2.056-3.42-3.138-7.338-3.138-11.326v-6.495c0-8.195-5.471-15.129-12.949-17.362V6.681c0-2.858-2.324-5.181-5.182-5.181
					c-2.856,0-5.175,2.323-5.175,5.181v4.649c-7.483,2.233-12.954,9.167-12.954,17.362v6.495c0,3.988-1.082,7.902-3.137,11.324
					l-4.445,7.412c-0.24,0.402-0.246,0.899-0.016,1.305c0.23,0.408,0.656,0.658,1.125,0.658h49.205c0.467,0,0.896-0.25,1.127-0.654
					S53.349,54.323,53.108,53.927z"/>
			</g>
		</g>
		<g>
			<g>
				<path fill="none" stroke="#000000" stroke-width="3" stroke-miterlimit="10" d="M19.241,56.476
					c1.459,3.051,4.553,5.181,8.154,5.181s6.695-2.13,8.158-5.181H19.241z"/>
			</g>
		</g>
	</g>
</g>
</svg>
