<?xml version="1.0" encoding="utf-8"?>
<!-- Generator: Adobe Illustrator 16.0.0, SVG Export Plug-In . SVG Version: 6.00 Build 0)  -->
<!DOCTYPE svg PUBLIC "-//W3C//DTD SVG 1.1//EN" "http://www.w3.org/Graphics/SVG/1.1/DTD/svg11.dtd">
<svg version="1.1" id="Layer_1" xmlns="http://www.w3.org/2000/svg" xmlns:xlink="http://www.w3.org/1999/xlink" x="0px" y="0px"
	 width="58.918px" height="60px" viewBox="0 0 58.918 60" enable-background="new 0 0 58.918 60" xml:space="preserve">
<g>
	<g>
		<g>
			<path fill="#00B59A" d="M29.596,0C29.58,0.017,29.547,0.017,29.5,0.017C13.23,0.017,0,13.247,0,29.516
				c0,6.639,2.268,13.085,6.414,18.278l-4.293,9.967c-0.354,0.819,0.033,1.768,0.838,2.105c0.289,0.129,0.609,0.161,0.916,0.113
				l15.738-2.766c3.15,1.142,6.461,1.721,9.805,1.704c16.27,0,29.5-13.23,29.5-29.499C58.949,13.198,45.816,0.017,29.596,0z
				 M29.436,55.719c-3.104,0-6.174-0.562-9.084-1.655c-0.273-0.113-0.562-0.129-0.852-0.081L6.254,56.298l3.504-8.15
				C10,47.585,9.902,46.925,9.5,46.459c-1.896-2.202-3.406-4.71-4.469-7.427c-1.189-3.038-1.801-6.27-1.801-9.533
				c0-14.5,11.801-26.284,26.285-26.284C43.967,3.183,55.703,14.87,55.719,29.322c0,0.032,0,0.064,0,0.097
				C55.719,43.936,43.92,55.719,29.436,55.719z"/>
		</g>
	</g>
	<g>
		<g>
			<path fill="#00B59A" d="M28.182,23.583H19.5c-0.885,0-1.607,0.723-1.607,1.607s0.723,1.608,1.607,1.608h8.682
				c0.883,0,1.607-0.724,1.607-1.608S29.064,23.583,28.182,23.583z"/>
		</g>
	</g>
	<g>
		<g>
			<path fill="#00B59A" d="M39.434,31.621H19.5c-0.885,0-1.607,0.724-1.607,1.607s0.723,1.608,1.607,1.608h19.934
				c0.885,0,1.607-0.725,1.607-1.608S40.318,31.621,39.434,31.621z"/>
		</g>
	</g>
</g>
</svg>
