<svg id="Layer_1" data-name="Layer 1" xmlns="http://www.w3.org/2000/svg" viewBox="0 0 47.66 63"><defs><style>.cls-1{fill:#00b59a;fill-rule:evenodd;}</style></defs><path class="cls-1" d="M14,.37A1.21,1.21,0,0,1,14.85,0H42.09a5.58,5.58,0,0,1,5.57,5.57V8.16a1.23,1.23,0,0,1-2.46,0V5.57a3.14,3.14,0,0,0-3.11-3.11h-26V14.85a1.23,1.23,0,0,1-1.23,1.23H2.46V45A1.23,1.23,0,0,1,0,45V14.85a1.24,1.24,0,0,1,.14-.58A1.33,1.33,0,0,1,.37,14ZM46.43,16.78A1.23,1.23,0,0,0,45.2,18V57.43a3.14,3.14,0,0,1-3.11,3.11H5.57a3.14,3.14,0,0,1-3.11-3.11V54.84a1.23,1.23,0,0,0-2.46,0v2.59A5.57,5.57,0,0,0,5.57,63H42.09a5.57,5.57,0,0,0,5.57-5.57V18A1.23,1.23,0,0,0,46.43,16.78Zm0-4.93a1.24,1.24,0,1,0,1.23,1.24A1.23,1.23,0,0,0,46.43,11.85ZM1.23,48.68A1.24,1.24,0,1,1,0,49.91,1.23,1.23,0,0,1,1.23,48.68Zm7.32,3.73a1.24,1.24,0,0,1,0-2.47H40.34a1.24,1.24,0,0,1,0,2.47Zm0-12.27H40.34a1.23,1.23,0,0,0,0-2.46H8.55a1.23,1.23,0,1,0,0,2.46Zm0-12.26H40.34a1.24,1.24,0,0,0,0-2.47H8.55a1.24,1.24,0,0,0,0,2.47ZM4.21,13.61h9.4V4.21Z"/></svg>