<?xml version="1.0" encoding="utf-8"?>
<!-- Generator: Adobe Illustrator 16.0.0, SVG Export Plug-In . SVG Version: 6.00 Build 0)  -->
<!DOCTYPE svg PUBLIC "-//W3C//DTD SVG 1.1//EN" "http://www.w3.org/Graphics/SVG/1.1/DTD/svg11.dtd">
<svg version="1.1" id="Layer_1" xmlns="http://www.w3.org/2000/svg" xmlns:xlink="http://www.w3.org/1999/xlink" x="0px" y="0px"
	 width="54.944px" height="48.978px" viewBox="0 0 54.944 48.978" enable-background="new 0 0 54.944 48.978" xml:space="preserve">
<g>
	<polygon fill="#AC232A" points="27.472,2.125 48.484,15.571 47.275,46.011 46.775,47.511 34.275,47.511 32.775,45.386 
		33.152,32.057 31.775,30.011 28.527,27.764 25.402,28.386 23.152,30.386 21.902,33.511 21.902,37.261 21.902,43.136 21.902,45.636 
		21.902,47.511 7.402,47.511 7.402,16.261 	"/>
	<g>
		<g>
			<g>
				<path fill="#AC232A" d="M54.359,19.344L28.316,0.276c-0.502-0.368-1.186-0.368-1.688,0L0.583,19.344
					c-0.635,0.466-0.773,1.359-0.309,1.996c0.467,0.636,1.359,0.773,1.996,0.309l5.818-4.263L27.472,3.198l25.201,18.451
					c0.252,0.186,0.549,0.276,0.842,0.276c0.439,0,0.873-0.204,1.153-0.585C55.134,20.704,54.996,19.81,54.359,19.344z"/>
			</g>
		</g>
		<g>
			<g>
				<path fill="#AC232A" d="M47.458,15.136c-0.789,0-1.428,0.64-1.428,1.428v29.559h-11.42V33.718c0-3.936-3.203-7.138-7.139-7.138
					c-3.937,0-7.139,3.202-7.139,7.138v12.404H8.914V16.564c0-0.788-0.64-1.428-1.428-1.428c-0.789,0-1.428,0.64-1.428,1.428V47.55
					c0,0.788,0.639,1.428,1.428,1.428h14.275c0.748,0,1.363-0.579,1.422-1.316c0.003-0.034,0.004-0.069,0.004-0.111V33.718
					c0-2.361,1.92-4.282,4.285-4.282c2.363,0,4.283,1.921,4.283,4.282V47.55c0,0.042,0.002,0.077,0.006,0.109
					c0.056,0.737,0.67,1.318,1.422,1.318h14.275c0.789,0,1.428-0.64,1.428-1.428V16.564C48.886,15.776,48.248,15.136,47.458,15.136z
					"/>
			</g>
		</g>
	</g>
</g>
</svg>
