<svg id="Layer_1"
    data-name="Layer 1" xmlns="http://www.w3.org/2000/svg"
    viewBox="0 0 47.95 55">
    <path fill="#7736f5" d="M44.77,19.1l-5.39-2A6.53,6.53,0,1,0,30.9,7.21L27.18,10.5l-.74-4.93A6.53,6.53,0,1,0,13.57,7.74L8.49,5.89A4.84,4.84,0,0,0,2.3,8.78l-2.2,6a1.61,1.61,0,0,0,1,2.07L26.2,26H1.92a1.61,1.61,0,0,0-1.6,1.61V50.17A4.83,4.83,0,0,0,5.14,55H37.32a4.84,4.84,0,0,0,4.83-4.83V31.84l1.24.46a1.61,1.61,0,0,0,2.06-1l2.21-6A4.84,4.84,0,0,0,44.77,19.1ZM16.4,51.78H5.14a1.61,1.61,0,0,1-1.61-1.61V29.26H16.4Zm6.44,0H19.62V29.26h3.22ZM33,9.62a3.31,3.31,0,1,1,1.06,5.59l-5.23-1.9ZM18,3.86A3.32,3.32,0,0,1,23.26,6l.83,5.53-5.24-1.9A3.33,3.33,0,0,1,18,3.86Zm.76,16.06L3.67,14.41,5.32,9.88a1.6,1.6,0,0,1,2.06-1L21,13.87Zm6.05,2.2-3-1.1L24,15l3,1.1ZM38.93,50.17a1.61,1.61,0,0,1-1.61,1.61H26.06V29.26h9l3.88,1.41v19.5Zm5.7-26L43,28.72l-15.12-5.5,2.2-6,13.61,4.95A1.62,1.62,0,0,1,44.63,24.19Z"/></svg>