<svg id="Layer_1" data-name="Layer 1"
    xmlns="http://www.w3.org/2000/svg"
    viewBox="0 0 59.89 60">

    <path fill="#ff3654"
        d="M21.3,0c.52.14,1.05.25,1.56.42a7.72,7.72,0,0,1,5.22,7.26c0,4.26,0,8.52,0,12.77a7.71,7.71,0,0,1-7.63,7.67q-6.4,0-12.81,0A7.7,7.7,0,0,1,0,20.45Q0,14.12,0,7.8A7.71,7.71,0,0,1,6.53.1,2,2,0,0,0,6.79,0ZM14,24.37h6.2a4,4,0,0,0,4.1-4.09c0-4.13,0-8.27,0-12.41A4,4,0,0,0,20.2,3.75H7.92A4,4,0,0,0,3.75,8V20.14A4,4,0,0,0,8,24.37Z"/><path fill="#ff3654" d="M59.89,21.33c-.09.37-.17.75-.28,1.12a7.7,7.7,0,0,1-7.38,5.67q-6.36,0-12.74,0a7.7,7.7,0,0,1-7.66-7.74c0-4.2,0-8.39,0-12.59A7.69,7.69,0,0,1,38.34.1c.09,0,.18-.07.27-.1h14.5a2,2,0,0,0,.32.11,7.59,7.59,0,0,1,6,5,14.25,14.25,0,0,1,.48,1.73Zm-14-17.58H39.72a4,4,0,0,0-4.15,4.17q0,6.14,0,12.29a4,4,0,0,0,4.15,4.16H52a4,4,0,0,0,4.15-4.16q0-6.15,0-12.3A4,4,0,0,0,52,3.75Z"/>
    <path fill="#ff3654"  d="M6.79,60c-.63-.18-1.27-.32-1.89-.56A7.63,7.63,0,0,1,0,52.38c0-4.3,0-8.6,0-12.89a7.68,7.68,0,0,1,7.56-7.61q6.47,0,12.93,0a7.69,7.69,0,0,1,7.56,7.55c0,4.33,0,8.67,0,13a7.72,7.72,0,0,1-6.39,7.46,2.38,2.38,0,0,0-.38.11Zm-3-14.07v6.15a4,4,0,0,0,4.16,4.17H20.18a4,4,0,0,0,4.16-4.16V39.79a4,4,0,0,0-4.16-4.16q-6.13,0-12.27,0a4,4,0,0,0-4.16,4.16Z"/><path fill="#ff3654"  d="M44.57,60c-1.13-.27-2.29-.46-3.38-.83A14,14,0,1,1,59.75,43.85c0,.27.09.53.14.8v2.58c0,.11-.08.21-.1.32A13.86,13.86,0,0,1,50,59.35a25,25,0,0,1-2.88.65Zm1.31-24.37A10.31,10.31,0,1,0,56.15,46,10.31,10.31,0,0,0,45.88,35.63Z"/></svg>