<?xml version="1.0" encoding="utf-8"?>
<!-- Generator: Adobe Illustrator 16.0.0, SVG Export Plug-In . SVG Version: 6.00 Build 0)  -->
<!DOCTYPE svg PUBLIC "-//W3C//DTD SVG 1.1//EN" "http://www.w3.org/Graphics/SVG/1.1/DTD/svg11.dtd">
<svg version="1.1" id="Layer_1" xmlns="http://www.w3.org/2000/svg" xmlns:xlink="http://www.w3.org/1999/xlink" x="0px" y="0px"
	 width="55.5px" height="55.5px" viewBox="0 0 55.5 55.5" enable-background="new 0 0 55.5 55.5" xml:space="preserve">
<g>
	<circle fill="#EE476F" cx="27.75" cy="41.388" r="2.033"/>
	<path fill="#EE476F" d="M27.75,0C12.448,0,0,12.449,0,27.75S12.448,55.5,27.75,55.5S55.5,43.051,55.5,27.75S43.052,0,27.75,0z
		 M27.75,52.546c-13.673,0-24.797-11.123-24.797-24.796S14.077,2.953,27.75,2.953S52.547,14.077,52.547,27.75
		S41.423,52.546,27.75,52.546z"/>
	<path fill="#EE476F" d="M35.906,22.462c0-4.498-3.659-8.155-8.156-8.155c-4.498,0-8.156,3.658-8.156,8.155
		c0,0.813,0.662,1.478,1.477,1.478s1.478-0.664,1.478-1.478c0-2.869,2.334-5.203,5.203-5.203s5.203,2.334,5.203,5.203
		s-2.577,5.203-5.447,5.203c-0.813,0-1.72,0.663-1.72,1.478v5.565c0,0.813,0.686,1.478,1.5,1.478s1.5-0.664,1.5-1.478v-4.203
		l0.783-0.146C33.171,29.43,35.906,26.182,35.906,22.462z"/>
</g>
</svg>
