<?xml version="1.0" encoding="utf-8"?>
<!-- Generator: Adobe Illustrator 16.0.0, SVG Export Plug-In . SVG Version: 6.00 Build 0)  -->
<!DOCTYPE svg PUBLIC "-//W3C//DTD SVG 1.1//EN" "http://www.w3.org/Graphics/SVG/1.1/DTD/svg11.dtd">
<svg version="1.1" id="Layer_1" xmlns="http://www.w3.org/2000/svg" xmlns:xlink="http://www.w3.org/1999/xlink" x="0px" y="0px"
	 width="65.753px" height="60px" viewBox="0 0 65.753 60" enable-background="new 0 0 65.753 60" xml:space="preserve">
<g>
	<g>
		<g>
			<path fill="#FAAF3B" d="M64.939,28.425l-7.036-4.959c-1.273-0.899-3.036,0.016-3.036,1.573v3.034h-33.78
				c-1.063,0-1.927,0.862-1.927,1.927c0,1.063,0.863,1.927,1.927,1.927h33.78v3.032c0,1.568,1.771,2.467,3.036,1.575l7.036-4.961
				C66.014,30.816,66.035,29.199,64.939,28.425z"/>
		</g>
	</g>
	<g>
		<g>
			<path fill="#FAAF3B" d="M55.283,42.369c-0.921-0.532-2.1-0.218-2.632,0.703c-4.526,7.822-12.984,13.074-22.65,13.074
				C15.582,56.146,3.854,44.417,3.854,30c0-14.418,11.729-26.147,26.147-26.147c9.672,0,18.127,5.256,22.65,13.075
				c0.532,0.92,1.711,1.235,2.632,0.702c0.92-0.532,1.235-1.711,0.703-2.633C50.781,6.001,41.062,0,30.001,0C13.419,0,0,13.417,0,30
				c0,16.581,13.418,30,30.001,30c11.065,0,20.782-6.006,25.985-14.999C56.519,44.08,56.204,42.902,55.283,42.369z"/>
		</g>
	</g>
</g>
</svg>
