<?xml version="1.0" encoding="utf-8"?>
<!-- Generator: Adobe Illustrator 16.0.0, SVG Export Plug-In . SVG Version: 6.00 Build 0)  -->
<!DOCTYPE svg PUBLIC "-//W3C//DTD SVG 1.1//EN" "http://www.w3.org/Graphics/SVG/1.1/DTD/svg11.dtd">
<svg version="1.1" id="Layer_1" xmlns="http://www.w3.org/2000/svg" xmlns:xlink="http://www.w3.org/1999/xlink" x="0px" y="0px"
	 width="53.555px" height="60px" viewBox="0 0 53.555 60" enable-background="new 0 0 53.555 60" xml:space="preserve">
<g>
	<g>
		<g>
			<path fill="#7736F5" d="M49.715,60H8.088c-2.118,0-3.84-1.721-3.84-3.838v-6.214H3.84c-2.116,0-3.84-1.722-3.84-3.837
				c0-2.117,1.724-3.84,3.84-3.84h0.408v-3.156H3.84c-2.116,0-3.84-1.723-3.84-3.839s1.724-3.839,3.84-3.839h0.408V28.28H3.84
				C1.724,28.28,0,26.559,0,24.441c0-2.115,1.724-3.837,3.84-3.837h0.408v-3.155H3.84c-2.116,0-3.84-1.723-3.84-3.838
				c0-2.118,1.724-3.839,3.84-3.839h0.408V3.838C4.248,1.723,5.97,0,8.088,0h41.627c2.118,0,3.84,1.723,3.84,3.838v52.324
				C53.555,58.279,51.833,60,49.715,60z M4.129,44.893c-0.551,0-0.997,0.448-0.997,1s0.446,1.002,0.997,1.002h3.177v8.916
				c0,0.551,0.446,1.002,0.998,1.002h40.909c0.551,0,1-0.451,1-1.002V4.191c0-0.551-0.449-1-1-1H8.304c-0.552,0-0.998,0.449-0.998,1
				v8.641H4.129c-0.551,0-0.997,0.448-0.997,1.002c0,0.552,0.446,1,0.997,1h3.177v8.684H4.129c-0.551,0-0.997,0.448-0.997,1.001
				c0,0.552,0.446,1.001,0.997,1.001h3.177v8.684H4.129c-0.551,0-0.997,0.451-0.997,1.002c0,0.553,0.446,1,0.997,1h3.177v8.688
				H4.129z"/>
		</g>
	</g>
</g>
</svg>
