<?xml version="1.0" encoding="utf-8"?>
<!-- Generator: Adobe Illustrator 16.0.0, SVG Export Plug-In . SVG Version: 6.00 Build 0)  -->
<!DOCTYPE svg PUBLIC "-//W3C//DTD SVG 1.1//EN" "http://www.w3.org/Graphics/SVG/1.1/DTD/svg11.dtd">
<svg version="1.1" id="Layer_1" xmlns="http://www.w3.org/2000/svg" xmlns:xlink="http://www.w3.org/1999/xlink" x="0px" y="0px"
	 width="40.153px" height="48.862px" viewBox="0 0 40.153 48.862" enable-background="new 0 0 40.153 48.862" xml:space="preserve">
<g>
	<g>
		<path fill="#ae242d" d="M30.896,17.507H9.257c-0.479,0-0.865,0.387-0.865,0.865s0.387,0.865,0.865,0.865h21.639
			c0.479,0,0.867-0.387,0.867-0.865S31.374,17.507,30.896,17.507z"/>
		<path fill="#ae242d" d="M9.257,12.313h8.656c0.478,0,0.865-0.388,0.865-0.866s-0.388-0.865-0.865-0.865H9.257
			c-0.479,0-0.865,0.387-0.865,0.865S8.778,12.313,9.257,12.313z"/>
		<path fill="#ae242d" d="M30.896,24.432H9.257c-0.479,0-0.865,0.387-0.865,0.865s0.387,0.866,0.865,0.866h21.639
			c0.479,0,0.867-0.388,0.867-0.866S31.374,24.432,30.896,24.432z"/>
		<path fill="#ae242d" d="M30.896,31.356H9.257c-0.479,0-0.865,0.387-0.865,0.866c0,0.479,0.387,0.865,0.865,0.865h21.639
			c0.479,0,0.867-0.387,0.867-0.865C31.763,31.743,31.374,31.356,30.896,31.356z"/>
		<path fill="#ae242d" d="M30.896,38.282H9.257c-0.479,0-0.865,0.386-0.865,0.865c0,0.479,0.387,0.865,0.865,0.865h21.639
			c0.479,0,0.867-0.387,0.867-0.865C31.763,38.668,31.374,38.282,30.896,38.282z"/>
	</g>
	<g>
		<g>
			<g>
				<path fill="#ae242d" d="M0,34.425v-2.571v-6.252V23.03v-6.251V14.21V7.958V3.125C0,1.402,1.403,0,3.126,0h33.902
					c1.723,0,3.125,1.402,3.125,3.125v42.612c0,1.724-1.402,3.125-3.125,3.125H3.126C1.403,48.862,0,47.461,0,45.737v-5.062V34.425z
					 M2.489,38.189v7.261c0,0.449,0.365,0.815,0.813,0.815h33.315c0.448,0,0.812-0.366,0.812-0.815V3.413
					c0-0.449-0.364-0.814-0.812-0.814H3.303c-0.448,0-0.813,0.365-0.813,0.814c0,0,0,5.277,0,7.036v1.631c0,1.769,0,7.071,0,7.071
					v1.631v7.072v1.631v7.073V38.189z"/>
			</g>
		</g>
	</g>
</g>
</svg>
