<svg id="Layer_1" data-name="Layer 1" xmlns="http://www.w3.org/2000/svg" viewBox="0 0 47.49 62.5"><defs><style>.cls-1{fill:#ff3654;}</style></defs><path class="cls-1" d="M47.49,13.9A1.61,1.61,0,0,0,47,12.77L34.72.47A1.61,1.61,0,0,0,33.59,0H6.52A6.52,6.52,0,0,0,0,6.52V56A6.52,6.52,0,0,0,6.52,62.5H41A6.53,6.53,0,0,0,47.49,56ZM35.18,5.45,42,12.3H35.18ZM44.3,56A3.34,3.34,0,0,1,41,59.31H6.52A3.33,3.33,0,0,1,3.19,56V6.52A3.33,3.33,0,0,1,6.52,3.19H32V13.9a1.6,1.6,0,0,0,1.6,1.6H44.3Z"/><path class="cls-1" d="M9.84,37A18.87,18.87,0,0,0,23.29,55.05a1.57,1.57,0,0,0,.91,0A18.84,18.84,0,0,0,37.64,37V26.45a1.59,1.59,0,0,0-1.59-1.59,6.34,6.34,0,0,1-5.7-3.53l-.26-.51a1.58,1.58,0,0,0-1.42-.89H18.82a1.59,1.59,0,0,0-1.43.89l-.26.51a6.31,6.31,0,0,1-5.69,3.53,1.6,1.6,0,0,0-1.6,1.59ZM13,27.92l.2,0a9.52,9.52,0,0,0,6.49-4.63l.07-.13h7.89l.07.13a9.52,9.52,0,0,0,6.49,4.63l.2,0V37A15.64,15.64,0,0,1,23.82,51.82l-.08,0-.08,0A15.65,15.65,0,0,1,13,37Z"/><path class="cls-1" d="M30.09,32.92a1.61,1.61,0,0,0-2.25,0L22,38.75,19.65,36.4a1.58,1.58,0,0,0-2.25,0,1.58,1.58,0,0,0,0,2.25l3.48,3.48a1.61,1.61,0,0,0,2.25,0l7-7A1.59,1.59,0,0,0,30.09,32.92Z"/></svg>