<svg id="Layer_1" data-name="Layer 1" xmlns="http://www.w3.org/2000/svg" viewBox="0 0 29.22 11"><defs><style>.cls-1{fill:#3d3d3d;}.cls-2{fill:#5a0fc8;}</style></defs><path class="cls-1" d="M21.5,9l.85-2.13h2.43L23.63,3.66,25.07,0l4.15,11H26.16l-.71-2Z"/><path class="cls-2" d="M18.9,11,23.33,0H20.39l-3,7.11L15.2,0H12.94L10.62,7.11,9,3.87,7.51,8.42,9,11h2.9L14,4.63,16,11Z"/><path class="cls-1" d="M2.79,7.22H4.6A5.48,5.48,0,0,0,6.07,7L6.54,5.6l1.31-4a3.55,3.55,0,0,0-.35-.44A3.74,3.74,0,0,0,4.55,0H0V11H2.79Zm2.4-4.69a1.44,1.44,0,0,1,.39,1.06,1.54,1.54,0,0,1-.34,1.06,1.82,1.82,0,0,1-1.4.44h-1v-3H3.85A1.86,1.86,0,0,1,5.19,2.53Z"/></svg>