<?xml version="1.0" encoding="utf-8"?>
<!-- Generator: Adobe Illustrator 16.0.0, SVG Export Plug-In . SVG Version: 6.00 Build 0)  -->
<!DOCTYPE svg PUBLIC "-//W3C//DTD SVG 1.1//EN" "http://www.w3.org/Graphics/SVG/1.1/DTD/svg11.dtd">
<svg version="1.1" id="Layer_1" xmlns="http://www.w3.org/2000/svg" xmlns:xlink="http://www.w3.org/1999/xlink" x="0px" y="0px"
	 width="54.098px" height="54.107px" viewBox="0 0 54.098 54.107" enable-background="new 0 0 54.098 54.107" xml:space="preserve">
<g>
	<g>
		<path fill="#ae242d" d="M53.629,51.349L40.478,38.199c3.531-4.054,5.665-9.345,5.665-15.131C46.143,10.341,35.789,0,23.07,0
			C10.342,0,0,10.351,0,23.068c0,12.72,10.354,23.073,23.07,23.073c5.784,0,11.075-2.135,15.125-5.662L51.35,53.629
			c0.311,0.312,0.733,0.479,1.142,0.479c0.409,0,0.823-0.154,1.138-0.479C54.253,53.006,54.253,51.972,53.629,51.349L53.629,51.349z
			 M3.227,23.068c0-10.94,8.902-19.829,19.835-19.829c10.937,0,19.828,8.9,19.828,19.829c0,10.933-8.892,19.847-19.828,19.847
			C12.129,42.915,3.227,34.012,3.227,23.068L3.227,23.068z M3.227,23.068"/>
	</g>
</g>
</svg>
