<svg id="Layer_1" data-name="Layer 1" xmlns="http://www.w3.org/2000/svg" viewBox="0 0 54.25 62"><defs><style>.cls-1{fill:#ff9d00;}</style></defs><path class="cls-1" d="M23.13,0c.7.15,1.42.26,2.11.46a12.23,12.23,0,0,1,9,9.27,12.26,12.26,0,0,1-3.75,12.34l-.44.42c.24.09.43.18.63.24a18.92,18.92,0,0,1,10,7.84,42.36,42.36,0,0,1,3.25,6.92A2.1,2.1,0,0,0,46.3,39c2.61-.12,5.24,0,7.94,0,0,1.23,0,2.43,0,3.64,0,.16-.2.34-.32.49C52.35,45,50.8,46.86,49.24,48.7a1,1,0,0,0-.23,1c.89,3,1.74,6,2.62,9.06a.83.83,0,0,1-.23,1c-.75.71-1.46,1.45-2.21,2.21L44.4,59.39c-1.62-.87-3.23-1.74-4.83-2.64a1,1,0,0,0-1.1,0c-3.17,1.76-6.36,3.49-9.6,5.25-.83-.83-1.68-1.65-2.5-2.51-.09-.1-.05-.38,0-.55q1-3.55,2-7.09c.08-.27.14-.54.23-.88H0V40.87A19,19,0,0,1,13.36,22.6l.37-.14L13.28,22C9.53,18.34,8.22,13.9,9.82,8.88S15.06,1,20.3.11A3.11,3.11,0,0,0,20.71,0Zm.64,39h.76c2.81,0,5.61,0,8.42,0a.7.7,0,0,0,.73-.46c1-2.17,2.07-4.33,3.09-6.5a.77.77,0,0,0-.05-.68,14.33,14.33,0,0,0-10-5.79,76.2,76.2,0,0,0-7.86-.15,14.65,14.65,0,0,0-2.64.24A15.18,15.18,0,0,0,3.76,39.26c-.19,2.61-.07,5.24-.09,7.86,0,0,0,.07.06.12H27.55c-1.19-1.42-2.32-2.76-3.43-4.11-.14-.17-.33-.36-.34-.55C23.75,41.41,23.77,40.25,23.77,39Zm7.17-26.3a9.05,9.05,0,1,0-9,9.05A9.07,9.07,0,0,0,30.94,12.71Zm8.18,22.95C38,37.91,37,40,36,42.12a.81.81,0,0,1-.85.56c-2,0-3.91,0-5.87,0h-.77c.2.26.31.42.43.56,1.32,1.58,2.65,3.15,3.95,4.75a1,1,0,0,1,.16.79c-.69,2.48-1.41,5-2.11,7.44a3.44,3.44,0,0,0-.1.52l.67-.34c2.35-1.28,4.71-2.56,7-3.86a.78.78,0,0,1,.88,0c2.34,1.3,4.7,2.58,7,3.86l.71.38c-.08-.29-.11-.46-.16-.63-.7-2.42-1.39-4.84-2.11-7.25a1,1,0,0,1,.23-1c1.3-1.52,2.57-3.06,3.85-4.59l.48-.61h-.8c-2,0-4,0-5.93,0a.68.68,0,0,1-.77-.49c-.38-.93-.8-1.84-1.21-2.76Z"/></svg>