<svg id="Layer_1" data-name="Layer 1" xmlns="http://www.w3.org/2000/svg" viewBox="0 0 59.86 62.5"><defs><style>.cls-1{fill:#1d39cf;}</style></defs><path class="cls-1" d="M20.21,12.14H9.2a1.6,1.6,0,1,0,0,3.19h11a1.6,1.6,0,1,0,0-3.19Z"/><path class="cls-1" d="M20.21,19.52H9.2a1.6,1.6,0,1,0,0,3.19h11a1.6,1.6,0,1,0,0-3.19Z"/><path class="cls-1" d="M20.21,26.9H9.2a1.6,1.6,0,1,0,0,3.19h11a1.6,1.6,0,1,0,0-3.19Z"/><path class="cls-1" d="M20.21,34.29H9.2a1.6,1.6,0,1,0,0,3.19h11a1.6,1.6,0,1,0,0-3.19Z"/><path class="cls-1" d="M20.21,41.79H9.2a1.6,1.6,0,1,0,0,3.2h11a1.6,1.6,0,0,0,0-3.2Z"/><path class="cls-1" d="M26.41,15.33h11a1.6,1.6,0,1,0,0-3.19h-11a1.6,1.6,0,1,0,0,3.19Z"/><path class="cls-1" d="M26.41,22.71h11a1.6,1.6,0,1,0,0-3.19h-11a1.6,1.6,0,1,0,0,3.19Z"/><path class="cls-1" d="M26.41,30.09h5.3a1.6,1.6,0,1,0,0-3.19h-5.3a1.6,1.6,0,1,0,0,3.19Z"/><path class="cls-1" d="M50.89,42.52a1.6,1.6,0,0,0-2.24.24l-4.91,6.12L40.61,46.6a1.59,1.59,0,0,0-.94-.3l-.25,0a1.58,1.58,0,0,0-1,.64,1.6,1.6,0,0,0,.35,2.23l4.37,3.16a1.64,1.64,0,0,0,2.18-.29l5.85-7.3A1.58,1.58,0,0,0,50.89,42.52Z"/><path class="cls-1" d="M39.44,0H7.18A7.19,7.19,0,0,0,0,7.18V49.94a7.19,7.19,0,0,0,7.18,7.18H33.24l.07.09A15.08,15.08,0,1,0,55.53,36.83a14.86,14.86,0,0,0-8.69-4.37l-.22,0V7.18A7.19,7.19,0,0,0,39.44,0ZM7.18,53.93a4,4,0,0,1-4-4V7.18a4,4,0,0,1,4-4H39.44a4,4,0,0,1,4,4v25.2l-.23,0a15.06,15.06,0,0,0-13.5,15A14.84,14.84,0,0,0,31,53.58l.15.35ZM53.26,39.07a11.89,11.89,0,1,1-8.48-3.56H45A11.8,11.8,0,0,1,53.26,39.07Z"/></svg>