<svg id="Layer_1" data-name="Layer 1" xmlns="http://www.w3.org/2000/svg" viewBox="0 0 55 55"><defs><style>.cls-1{fill:#00b59a;}</style></defs><path class="cls-1" d="M41.74,55H13.26a5.69,5.69,0,0,1-5.68-5.68L9.72,14.11A5.65,5.65,0,0,1,15.4,8.52H39.61a5.68,5.68,0,0,1,5.68,5.68l1.53,25.19a1.42,1.42,0,0,1-2.84.17L42.45,14.28a2.87,2.87,0,0,0-2.84-2.92H15.4a2.84,2.84,0,0,0-2.84,2.84L10.43,49.41a2.82,2.82,0,0,0,2.83,2.75H41.74a2.84,2.84,0,0,0,2.83-2.84l-.27-4.51a1.42,1.42,0,0,1,2.84-.17l.28,4.59A5.71,5.71,0,0,1,41.74,55Z"/><path class="cls-1" d="M36,11.36a1.43,1.43,0,0,1-1.43-1.42A7.09,7.09,0,0,0,23.4,4.15a1.42,1.42,0,1,1-1.64-2.32A9.83,9.83,0,0,1,27.5,0a10,10,0,0,1,9.94,9.94A1.43,1.43,0,0,1,36,11.36Z"/><path class="cls-1" d="M19,11.36a1.43,1.43,0,0,1-1.43-1.42A9.91,9.91,0,0,1,19,4.87,1.43,1.43,0,0,1,21.4,6.33a7,7,0,0,0-1,3.61A1.43,1.43,0,0,1,19,11.36Z"/><path class="cls-1" d="M27.5,38.25a2,2,0,0,1-1.31-.5c-1-.83-6.1-5.14-6.1-7.82a4.51,4.51,0,0,1,4.66-4.66,4.63,4.63,0,0,1,2.76.9,4.71,4.71,0,0,1,2.75-.9h0a4.61,4.61,0,0,1,4.65,4.66c0,2.8-6,7.8-6.09,7.84A2.15,2.15,0,0,1,27.5,38.25ZM24.75,28.11a1.69,1.69,0,0,0-1.81,1.82c.09.83,2.47,3.41,4.58,5.23,1.5-1.32,4.37-4.29,4.55-5.25a1.79,1.79,0,0,0-1.81-1.8h0a1.8,1.8,0,0,0-1.54.86l-1.2,2L26.3,29A1.82,1.82,0,0,0,24.75,28.11Z"/></svg>